<mxfile host="Electron" agent="Mozilla/5.0 (Macintosh; Intel Mac OS X 10_15_7) AppleWebKit/537.36 (KHTML, like Gecko) draw.io/27.0.9 Chrome/134.0.6998.205 Electron/35.4.0 Safari/537.36" version="27.0.9">
  <diagram id="wb409SOdWjBKvttR269M" name="Pagina-2">
    <mxGraphModel dx="5157" dy="4652" grid="1" gridSize="10" guides="1" tooltips="1" connect="1" arrows="1" fold="1" page="1" pageScale="1" pageWidth="827" pageHeight="1169" math="0" shadow="0">
      <root>
        <mxCell id="0" />
        <mxCell id="1" parent="0" />
        <mxCell id="UjiULM0Yq0ChmZ1WHvMP-1" value="DNS" style="swimlane;fontStyle=1;align=center;verticalAlign=top;childLayout=stackLayout;horizontal=1;startSize=26;horizontalStack=0;resizeParent=1;resizeParentMax=0;resizeLast=0;collapsible=1;marginBottom=0;whiteSpace=wrap;html=1;" parent="1" vertex="1">
          <mxGeometry x="1130" y="-110" width="330" height="110" as="geometry" />
        </mxCell>
        <mxCell id="UjiULM0Yq0ChmZ1WHvMP-4" value="&lt;p style=&quot;font-size: 14px; text-wrap-mode: nowrap; margin: 0px 0px 0px 4px; line-height: 1.6;&quot;&gt;- clientGame: Map&amp;lt;String, GameController&amp;gt;&lt;br&gt;- clients: Map&amp;lt;String, CallableOnClientController&amp;gt;&lt;br&gt;+ gameControllers: Map&amp;lt;String, GameController&amp;gt;&lt;/p&gt;" style="text;strokeColor=none;fillColor=none;align=left;verticalAlign=top;spacingLeft=4;spacingRight=4;overflow=hidden;rotatable=0;points=[[0,0.5],[1,0.5]];portConstraint=eastwest;whiteSpace=wrap;html=1;" parent="UjiULM0Yq0ChmZ1WHvMP-1" vertex="1">
          <mxGeometry y="26" width="330" height="84" as="geometry" />
        </mxCell>
        <mxCell id="PPUQBIdJS-AbmWnq9R_o-51" style="edgeStyle=orthogonalEdgeStyle;rounded=0;orthogonalLoop=1;jettySize=auto;html=1;entryX=0.999;entryY=0.717;entryDx=0;entryDy=0;entryPerimeter=0;" parent="1" source="UjiULM0Yq0ChmZ1WHvMP-5" target="UjiULM0Yq0ChmZ1WHvMP-118" edge="1">
          <mxGeometry relative="1" as="geometry">
            <Array as="points">
              <mxPoint x="860" y="715" />
              <mxPoint x="860" y="540" />
            </Array>
          </mxGeometry>
        </mxCell>
        <mxCell id="UjiULM0Yq0ChmZ1WHvMP-5" value="GameController&lt;div&gt;&lt;br&gt;&lt;/div&gt;" style="swimlane;fontStyle=1;align=center;verticalAlign=top;childLayout=stackLayout;horizontal=1;startSize=26;horizontalStack=0;resizeParent=1;resizeParentMax=0;resizeLast=0;collapsible=1;marginBottom=0;whiteSpace=wrap;html=1;" parent="1" vertex="1">
          <mxGeometry x="1070" y="680" width="530" height="70" as="geometry" />
        </mxCell>
        <mxCell id="UjiULM0Yq0ChmZ1WHvMP-6" value="&lt;span style=&quot;font-size: 14px; text-wrap-mode: nowrap;&quot;&gt;- clientControllers: ConcurrentHashMap&amp;lt;String, CallableOnClientController&amp;gt;&lt;/span&gt;&lt;br style=&quot;font-size: 14px; text-wrap-mode: nowrap;&quot;&gt;&lt;span style=&quot;font-size: 14px; text-wrap-mode: nowrap;&quot;&gt;- gameModel: GameModel&lt;/span&gt;" style="text;strokeColor=none;fillColor=none;align=left;verticalAlign=top;spacingLeft=4;spacingRight=4;overflow=hidden;rotatable=0;points=[[0,0.5],[1,0.5]];portConstraint=eastwest;whiteSpace=wrap;html=1;" parent="UjiULM0Yq0ChmZ1WHvMP-5" vertex="1">
          <mxGeometry y="26" width="530" height="44" as="geometry" />
        </mxCell>
        <mxCell id="PPUQBIdJS-AbmWnq9R_o-72" style="edgeStyle=orthogonalEdgeStyle;rounded=0;orthogonalLoop=1;jettySize=auto;html=1;" parent="1" source="UjiULM0Yq0ChmZ1WHvMP-13" target="UjiULM0Yq0ChmZ1WHvMP-77" edge="1">
          <mxGeometry relative="1" as="geometry">
            <Array as="points">
              <mxPoint x="520" y="740" />
              <mxPoint x="520" y="130" />
            </Array>
          </mxGeometry>
        </mxCell>
        <mxCell id="UjiULM0Yq0ChmZ1WHvMP-13" value="ClientController" style="swimlane;fontStyle=1;align=center;verticalAlign=top;childLayout=stackLayout;horizontal=1;startSize=26;horizontalStack=0;resizeParent=1;resizeParentMax=0;resizeLast=0;collapsible=1;marginBottom=0;whiteSpace=wrap;html=1;" parent="1" vertex="1">
          <mxGeometry x="-40" y="680" width="340" height="160" as="geometry" />
        </mxCell>
        <mxCell id="UjiULM0Yq0ChmZ1WHvMP-14" value="&lt;span style=&quot;font-size: 14px; text-wrap-mode: nowrap;&quot;&gt;- clientModel: ClientModel&lt;/span&gt;&lt;br style=&quot;font-size: 14px; text-wrap-mode: nowrap;&quot;&gt;&lt;span style=&quot;font-size: 14px; text-wrap-mode: nowrap;&quot;&gt;- nickname: String&lt;/span&gt;&lt;br style=&quot;font-size: 14px; text-wrap-mode: nowrap;&quot;&gt;&lt;span style=&quot;font-size: 14px; text-wrap-mode: nowrap;&quot;&gt;- view: ClientView&lt;/span&gt;&lt;br style=&quot;font-size: 14px; text-wrap-mode: nowrap;&quot;&gt;&lt;span style=&quot;font-size: 14px; text-wrap-mode: nowrap;&quot;&gt;- dns: CallableOnDNS&lt;/span&gt;&lt;div&gt;&lt;span style=&quot;font-size: 14px; text-wrap-mode: nowrap;&quot;&gt;- serverController: callableOnGameController&lt;br&gt;&lt;/span&gt;&lt;div&gt;&lt;span style=&quot;font-size: 14px; text-wrap-mode: nowrap;&quot;&gt;- clientPingPongManager: ClientPingPongManager&lt;/span&gt;&lt;/div&gt;&lt;div&gt;&lt;span style=&quot;font-size: 14px; text-wrap-mode: nowrap;&quot;&gt;...&lt;/span&gt;&lt;/div&gt;&lt;/div&gt;" style="text;strokeColor=none;fillColor=none;align=left;verticalAlign=top;spacingLeft=4;spacingRight=4;overflow=hidden;rotatable=0;points=[[0,0.5],[1,0.5]];portConstraint=eastwest;whiteSpace=wrap;html=1;" parent="UjiULM0Yq0ChmZ1WHvMP-13" vertex="1">
          <mxGeometry y="26" width="340" height="134" as="geometry" />
        </mxCell>
        <mxCell id="UjiULM0Yq0ChmZ1WHvMP-17" value="SocketClientManager" style="swimlane;fontStyle=1;align=center;verticalAlign=top;childLayout=stackLayout;horizontal=1;startSize=26;horizontalStack=0;resizeParent=1;resizeParentMax=0;resizeLast=0;collapsible=1;marginBottom=0;whiteSpace=wrap;html=1;" parent="1" vertex="1">
          <mxGeometry x="-150" y="1110" width="470" height="200" as="geometry" />
        </mxCell>
        <mxCell id="UjiULM0Yq0ChmZ1WHvMP-18" value="&lt;div&gt;&lt;span style=&quot;background-color: transparent; color: light-dark(rgb(0, 0, 0), rgb(255, 255, 255));&quot;&gt;- clientController: CallableOnClientController&lt;/span&gt;&lt;/div&gt;&lt;div&gt;&lt;span style=&quot;background-color: transparent; color: light-dark(rgb(0, 0, 0), rgb(255, 255, 255));&quot;&gt;- notificationBuffer: Queue&amp;lt;SocketMessage&amp;gt;&lt;/span&gt;&lt;/div&gt;&lt;div&gt;&lt;span style=&quot;background-color: transparent; color: light-dark(rgb(0, 0, 0), rgb(255, 255, 255));&quot;&gt;...&lt;/span&gt;&lt;/div&gt;" style="text;strokeColor=none;fillColor=none;align=left;verticalAlign=top;spacingLeft=4;spacingRight=4;overflow=hidden;rotatable=0;points=[[0,0.5],[1,0.5]];portConstraint=eastwest;whiteSpace=wrap;html=1;" parent="UjiULM0Yq0ChmZ1WHvMP-17" vertex="1">
          <mxGeometry y="26" width="470" height="54" as="geometry" />
        </mxCell>
        <mxCell id="UjiULM0Yq0ChmZ1WHvMP-19" value="" style="line;strokeWidth=1;fillColor=none;align=left;verticalAlign=middle;spacingTop=-1;spacingLeft=3;spacingRight=3;rotatable=0;labelPosition=right;points=[];portConstraint=eastwest;strokeColor=inherit;" parent="UjiULM0Yq0ChmZ1WHvMP-17" vertex="1">
          <mxGeometry y="80" width="470" height="8" as="geometry" />
        </mxCell>
        <mxCell id="UjiULM0Yq0ChmZ1WHvMP-20" value="+ connect(String, int): void&lt;div&gt;- startMessageHandlerThread(): void&lt;/div&gt;&lt;div&gt;&lt;div&gt;- sendAndWaitForSpecificResponse(SocketMessage, Set&amp;lt;String&amp;gt;): SocketMessage&lt;/div&gt;&lt;div&gt;- processBufferedNotifications(): void&lt;/div&gt;&lt;/div&gt;&lt;div&gt;- handleServerMessage(String): void&lt;/div&gt;&lt;div&gt;- processNotification(SocketMessage): void&lt;/div&gt;&lt;div&gt;...&lt;/div&gt;" style="text;strokeColor=none;fillColor=none;align=left;verticalAlign=top;spacingLeft=4;spacingRight=4;overflow=hidden;rotatable=0;points=[[0,0.5],[1,0.5]];portConstraint=eastwest;whiteSpace=wrap;html=1;" parent="UjiULM0Yq0ChmZ1WHvMP-17" vertex="1">
          <mxGeometry y="88" width="470" height="112" as="geometry" />
        </mxCell>
        <mxCell id="PPUQBIdJS-AbmWnq9R_o-48" style="edgeStyle=orthogonalEdgeStyle;rounded=0;orthogonalLoop=1;jettySize=auto;html=1;entryX=0.5;entryY=0;entryDx=0;entryDy=0;" parent="1" source="UjiULM0Yq0ChmZ1WHvMP-21" target="oHir_KhjHk0JjcYHDKme-1" edge="1">
          <mxGeometry relative="1" as="geometry">
            <Array as="points">
              <mxPoint x="1225" y="1080" />
              <mxPoint x="1225" y="1080" />
            </Array>
          </mxGeometry>
        </mxCell>
        <mxCell id="PPUQBIdJS-AbmWnq9R_o-49" style="edgeStyle=orthogonalEdgeStyle;rounded=0;orthogonalLoop=1;jettySize=auto;html=1;entryX=0.5;entryY=0;entryDx=0;entryDy=0;" parent="1" source="UjiULM0Yq0ChmZ1WHvMP-21" target="oHir_KhjHk0JjcYHDKme-3" edge="1">
          <mxGeometry relative="1" as="geometry">
            <Array as="points">
              <mxPoint x="1470" y="1080" />
              <mxPoint x="1470" y="1080" />
            </Array>
          </mxGeometry>
        </mxCell>
        <mxCell id="UjiULM0Yq0ChmZ1WHvMP-21" value="SocketServerManager" style="swimlane;fontStyle=1;align=center;verticalAlign=top;childLayout=stackLayout;horizontal=1;startSize=26;horizontalStack=0;resizeParent=1;resizeParentMax=0;resizeLast=0;collapsible=1;marginBottom=0;whiteSpace=wrap;html=1;" parent="1" vertex="1">
          <mxGeometry x="1165" y="945" width="360" height="110" as="geometry" />
        </mxCell>
        <mxCell id="UjiULM0Yq0ChmZ1WHvMP-22" value="- gameControllers: Map&amp;lt;String, CallableOnGameController&amp;gt;" style="text;strokeColor=none;fillColor=none;align=left;verticalAlign=top;spacingLeft=4;spacingRight=4;overflow=hidden;rotatable=0;points=[[0,0.5],[1,0.5]];portConstraint=eastwest;whiteSpace=wrap;html=1;" parent="UjiULM0Yq0ChmZ1WHvMP-21" vertex="1">
          <mxGeometry y="26" width="360" height="26" as="geometry" />
        </mxCell>
        <mxCell id="UjiULM0Yq0ChmZ1WHvMP-23" value="" style="line;strokeWidth=1;fillColor=none;align=left;verticalAlign=middle;spacingTop=-1;spacingLeft=3;spacingRight=3;rotatable=0;labelPosition=right;points=[];portConstraint=eastwest;strokeColor=inherit;" parent="UjiULM0Yq0ChmZ1WHvMP-21" vertex="1">
          <mxGeometry y="52" width="360" height="8" as="geometry" />
        </mxCell>
        <mxCell id="UjiULM0Yq0ChmZ1WHvMP-24" value="- run(): void&lt;div&gt;- performAction(SocketMessage, PrinterWriter): void&lt;/div&gt;" style="text;strokeColor=none;fillColor=none;align=left;verticalAlign=top;spacingLeft=4;spacingRight=4;overflow=hidden;rotatable=0;points=[[0,0.5],[1,0.5]];portConstraint=eastwest;whiteSpace=wrap;html=1;" parent="UjiULM0Yq0ChmZ1WHvMP-21" vertex="1">
          <mxGeometry y="60" width="360" height="50" as="geometry" />
        </mxCell>
        <mxCell id="UjiULM0Yq0ChmZ1WHvMP-26" value="Model" style="shape=umlFrame;whiteSpace=wrap;html=1;pointerEvents=0;" parent="1" vertex="1">
          <mxGeometry x="1730" y="250" width="1500" height="1230" as="geometry" />
        </mxCell>
        <mxCell id="PPUQBIdJS-AbmWnq9R_o-83" style="edgeStyle=orthogonalEdgeStyle;rounded=0;orthogonalLoop=1;jettySize=auto;html=1;" parent="1" source="UjiULM0Yq0ChmZ1WHvMP-31" target="UjiULM0Yq0ChmZ1WHvMP-118" edge="1">
          <mxGeometry relative="1" as="geometry">
            <Array as="points">
              <mxPoint x="860" y="400" />
              <mxPoint x="860" y="450" />
            </Array>
          </mxGeometry>
        </mxCell>
        <mxCell id="UjiULM0Yq0ChmZ1WHvMP-31" value="GameClientNotifier" style="swimlane;fontStyle=1;align=center;verticalAlign=top;childLayout=stackLayout;horizontal=1;startSize=26;horizontalStack=0;resizeParent=1;resizeParentMax=0;resizeLast=0;collapsible=1;marginBottom=0;whiteSpace=wrap;html=1;" parent="1" vertex="1">
          <mxGeometry x="1778" y="305" width="580" height="120" as="geometry" />
        </mxCell>
        <mxCell id="UjiULM0Yq0ChmZ1WHvMP-32" value="- clientControllers: Map&amp;lt;String, CallableOnClientController&amp;gt;" style="text;strokeColor=none;fillColor=none;align=left;verticalAlign=top;spacingLeft=4;spacingRight=4;overflow=hidden;rotatable=0;points=[[0,0.5],[1,0.5]];portConstraint=eastwest;whiteSpace=wrap;html=1;" parent="UjiULM0Yq0ChmZ1WHvMP-31" vertex="1">
          <mxGeometry y="26" width="580" height="26" as="geometry" />
        </mxCell>
        <mxCell id="UjiULM0Yq0ChmZ1WHvMP-33" value="" style="line;strokeWidth=1;fillColor=none;align=left;verticalAlign=middle;spacingTop=-1;spacingLeft=3;spacingRight=3;rotatable=0;labelPosition=right;points=[];portConstraint=eastwest;strokeColor=inherit;" parent="UjiULM0Yq0ChmZ1WHvMP-31" vertex="1">
          <mxGeometry y="52" width="580" height="8" as="geometry" />
        </mxCell>
        <mxCell id="UjiULM0Yq0ChmZ1WHvMP-34" value="&lt;div&gt;&lt;span style=&quot;background-color: transparent; color: light-dark(rgb(0, 0, 0), rgb(255, 255, 255));&quot;&gt;+ notifyClients(Set&amp;lt;String&amp;gt;, ThrowingBiConsumer&amp;lt;String, CallableOnClientController, IOException&amp;gt;): void&lt;/span&gt;&lt;/div&gt;&lt;div&gt;+ notifyAllClients(ThrowingBiConsumer&amp;lt;String, CallableOnClientController, IOException&amp;gt;): void&lt;/div&gt;&lt;div&gt;...&lt;/div&gt;" style="text;strokeColor=none;fillColor=none;align=left;verticalAlign=top;spacingLeft=4;spacingRight=4;overflow=hidden;rotatable=0;points=[[0,0.5],[1,0.5]];portConstraint=eastwest;whiteSpace=wrap;html=1;" parent="UjiULM0Yq0ChmZ1WHvMP-31" vertex="1">
          <mxGeometry y="60" width="580" height="60" as="geometry" />
        </mxCell>
        <mxCell id="UjiULM0Yq0ChmZ1WHvMP-35" value="Level1ShipBoard" style="swimlane;fontStyle=1;align=center;verticalAlign=top;childLayout=stackLayout;horizontal=1;startSize=26;horizontalStack=0;resizeParent=1;resizeParentMax=0;resizeLast=0;collapsible=1;marginBottom=0;whiteSpace=wrap;html=1;" parent="1" vertex="1">
          <mxGeometry x="2990" y="402.5" width="160" height="34" as="geometry" />
        </mxCell>
        <mxCell id="UjiULM0Yq0ChmZ1WHvMP-51" value="ServerPingPongManager" style="swimlane;fontStyle=1;align=center;verticalAlign=top;childLayout=stackLayout;horizontal=1;startSize=26;horizontalStack=0;resizeParent=1;resizeParentMax=0;resizeLast=0;collapsible=1;marginBottom=0;whiteSpace=wrap;html=1;" parent="1" vertex="1">
          <mxGeometry x="1140" y="240" width="280" height="90" as="geometry" />
        </mxCell>
        <mxCell id="UjiULM0Yq0ChmZ1WHvMP-54" value="&lt;span style=&quot;font-size: 14px; text-wrap-mode: nowrap;&quot;&gt;+ start(String, Runnable): void&lt;/span&gt;&lt;br style=&quot;font-size: 14px; text-wrap-mode: nowrap;&quot;&gt;&lt;span style=&quot;font-size: 14px; text-wrap-mode: nowrap;&quot;&gt;+ onPongReceived(String, Runnable): void&lt;/span&gt;&lt;div&gt;&lt;span style=&quot;font-size: 14px; text-wrap-mode: nowrap;&quot;&gt;...&lt;/span&gt;&lt;/div&gt;" style="text;strokeColor=none;fillColor=none;align=left;verticalAlign=top;spacingLeft=4;spacingRight=4;overflow=hidden;rotatable=0;points=[[0,0.5],[1,0.5]];portConstraint=eastwest;whiteSpace=wrap;html=1;" parent="UjiULM0Yq0ChmZ1WHvMP-51" vertex="1">
          <mxGeometry y="26" width="280" height="64" as="geometry" />
        </mxCell>
        <mxCell id="UjiULM0Yq0ChmZ1WHvMP-55" value="Client" style="shape=umlFrame;whiteSpace=wrap;html=1;pointerEvents=0;width=80;height=40;" parent="1" vertex="1">
          <mxGeometry x="-1500" y="360" width="1840" height="1270" as="geometry" />
        </mxCell>
        <mxCell id="UjiULM0Yq0ChmZ1WHvMP-56" value="ClientDeserializer" style="swimlane;fontStyle=1;align=center;verticalAlign=top;childLayout=stackLayout;horizontal=1;startSize=26;horizontalStack=0;resizeParent=1;resizeParentMax=0;resizeLast=0;collapsible=1;marginBottom=0;whiteSpace=wrap;html=1;" parent="1" vertex="1">
          <mxGeometry x="-170" y="1420" width="240" height="70" as="geometry" />
        </mxCell>
        <mxCell id="UjiULM0Yq0ChmZ1WHvMP-59" value="&lt;span style=&quot;font-size: 14px; text-wrap-mode: nowrap;&quot;&gt;+ deserialize(String, Class&amp;lt;T&amp;gt;): T&lt;/span&gt;&lt;div&gt;&lt;span style=&quot;font-size: 14px; text-wrap-mode: nowrap;&quot;&gt;...&lt;/span&gt;&lt;/div&gt;" style="text;strokeColor=none;fillColor=none;align=left;verticalAlign=top;spacingLeft=4;spacingRight=4;overflow=hidden;rotatable=0;points=[[0,0.5],[1,0.5]];portConstraint=eastwest;whiteSpace=wrap;html=1;" parent="UjiULM0Yq0ChmZ1WHvMP-56" vertex="1">
          <mxGeometry y="26" width="240" height="44" as="geometry" />
        </mxCell>
        <mxCell id="UjiULM0Yq0ChmZ1WHvMP-62" value="ClientS&lt;span style=&quot;background-color: transparent; color: light-dark(rgb(0, 0, 0), rgb(255, 255, 255));&quot;&gt;erializer&lt;/span&gt;" style="swimlane;fontStyle=1;align=center;verticalAlign=top;childLayout=stackLayout;horizontal=1;startSize=26;horizontalStack=0;resizeParent=1;resizeParentMax=0;resizeLast=0;collapsible=1;marginBottom=0;whiteSpace=wrap;html=1;" parent="1" vertex="1">
          <mxGeometry x="110" y="1420" width="170" height="70" as="geometry" />
        </mxCell>
        <mxCell id="UjiULM0Yq0ChmZ1WHvMP-65" value="&lt;span style=&quot;font-size: 14px; text-wrap-mode: nowrap;&quot;&gt;+ serialize(T): String&lt;/span&gt;&lt;div&gt;&lt;span style=&quot;font-size: 14px; text-wrap-mode: nowrap;&quot;&gt;...&lt;/span&gt;&lt;/div&gt;" style="text;strokeColor=none;fillColor=none;align=left;verticalAlign=top;spacingLeft=4;spacingRight=4;overflow=hidden;rotatable=0;points=[[0,0.5],[1,0.5]];portConstraint=eastwest;whiteSpace=wrap;html=1;" parent="UjiULM0Yq0ChmZ1WHvMP-62" vertex="1">
          <mxGeometry y="26" width="170" height="44" as="geometry" />
        </mxCell>
        <mxCell id="UjiULM0Yq0ChmZ1WHvMP-75" value="Server" style="shape=umlFrame;whiteSpace=wrap;html=1;pointerEvents=0;" parent="1" vertex="1">
          <mxGeometry x="1050" y="-140" width="2220" height="1700" as="geometry" />
        </mxCell>
        <mxCell id="UjiULM0Yq0ChmZ1WHvMP-77" value="CallableOnDNS" style="swimlane;fontStyle=1;align=center;verticalAlign=top;childLayout=stackLayout;horizontal=1;startSize=26;horizontalStack=0;resizeParent=1;resizeParentMax=0;resizeLast=0;collapsible=1;marginBottom=0;whiteSpace=wrap;html=1;" parent="1" vertex="1">
          <mxGeometry x="1105" y="30" width="450" height="120" as="geometry" />
        </mxCell>
        <mxCell id="UjiULM0Yq0ChmZ1WHvMP-80" value="&lt;span style=&quot;font-size: 14px; text-wrap-mode: nowrap;&quot;&gt;+ leaveGameBeforeCreation(String): void&lt;/span&gt;&lt;br style=&quot;font-size: 14px; text-wrap-mode: nowrap;&quot;&gt;&lt;span style=&quot;font-size: 14px; text-wrap-mode: nowrap;&quot;&gt;+ joinGame(String, String, PlayerColor): boolean&lt;/span&gt;&lt;br style=&quot;font-size: 14px; text-wrap-mode: nowrap;&quot;&gt;&lt;span style=&quot;font-size: 14px; text-wrap-mode: nowrap;&quot;&gt;+ registerWithNickname(String, CallableOnClientController): boolean&lt;/span&gt;&lt;br style=&quot;font-size: 14px; text-wrap-mode: nowrap;&quot;&gt;&lt;span style=&quot;font-size: 14px; text-wrap-mode: nowrap;&quot;&gt;+ createGame(PlayerColor, int, boolean, String): GameInfo&lt;/span&gt;&lt;div&gt;&lt;span style=&quot;font-size: 14px; text-wrap-mode: nowrap;&quot;&gt;...&lt;/span&gt;&lt;/div&gt;" style="text;strokeColor=none;fillColor=none;align=left;verticalAlign=top;spacingLeft=4;spacingRight=4;overflow=hidden;rotatable=0;points=[[0,0.5],[1,0.5]];portConstraint=eastwest;whiteSpace=wrap;html=1;" parent="UjiULM0Yq0ChmZ1WHvMP-77" vertex="1">
          <mxGeometry y="26" width="450" height="94" as="geometry" />
        </mxCell>
        <mxCell id="UjiULM0Yq0ChmZ1WHvMP-82" value="ClientPingPongManager" style="swimlane;fontStyle=1;align=center;verticalAlign=top;childLayout=stackLayout;horizontal=1;startSize=26;horizontalStack=0;resizeParent=1;resizeParentMax=0;resizeLast=0;collapsible=1;marginBottom=0;whiteSpace=wrap;html=1;" parent="1" vertex="1">
          <mxGeometry x="-653" y="470" width="240" height="110" as="geometry" />
        </mxCell>
        <mxCell id="UjiULM0Yq0ChmZ1WHvMP-85" value="&lt;p style=&quot;font-size: 14px; text-wrap-mode: nowrap; margin: 0px 0px 0px 4px; line-height: 1.6;&quot;&gt;+ start(Runnable): void&lt;br&gt;+ onPongReceived(Runnable): void&lt;br&gt;&lt;/p&gt;&lt;p style=&quot;font-size: 14px; text-wrap-mode: nowrap; margin: 0px 0px 0px 4px; line-height: 1.6;&quot;&gt;...&lt;/p&gt;" style="text;strokeColor=none;fillColor=none;align=left;verticalAlign=top;spacingLeft=4;spacingRight=4;overflow=hidden;rotatable=0;points=[[0,0.5],[1,0.5]];portConstraint=eastwest;whiteSpace=wrap;html=1;fontColor=default;" parent="UjiULM0Yq0ChmZ1WHvMP-82" vertex="1">
          <mxGeometry y="26" width="240" height="84" as="geometry" />
        </mxCell>
        <mxCell id="PPUQBIdJS-AbmWnq9R_o-58" style="edgeStyle=orthogonalEdgeStyle;rounded=0;orthogonalLoop=1;jettySize=auto;html=1;" parent="1" source="UjiULM0Yq0ChmZ1WHvMP-87" target="PPUQBIdJS-AbmWnq9R_o-14" edge="1">
          <mxGeometry relative="1" as="geometry" />
        </mxCell>
        <mxCell id="PPUQBIdJS-AbmWnq9R_o-59" style="edgeStyle=orthogonalEdgeStyle;rounded=0;orthogonalLoop=1;jettySize=auto;html=1;" parent="1" source="UjiULM0Yq0ChmZ1WHvMP-87" target="UjiULM0Yq0ChmZ1WHvMP-113" edge="1">
          <mxGeometry relative="1" as="geometry">
            <Array as="points">
              <mxPoint x="-1018" y="1360" />
              <mxPoint x="-1018" y="1460" />
            </Array>
          </mxGeometry>
        </mxCell>
        <mxCell id="PPUQBIdJS-AbmWnq9R_o-60" style="edgeStyle=orthogonalEdgeStyle;rounded=0;orthogonalLoop=1;jettySize=auto;html=1;entryX=0.5;entryY=0;entryDx=0;entryDy=0;" parent="1" source="UjiULM0Yq0ChmZ1WHvMP-87" target="PPUQBIdJS-AbmWnq9R_o-6" edge="1">
          <mxGeometry relative="1" as="geometry">
            <Array as="points">
              <mxPoint x="-990" y="1420" />
            </Array>
          </mxGeometry>
        </mxCell>
        <mxCell id="UjiULM0Yq0ChmZ1WHvMP-87" value="ClientModel" style="swimlane;fontStyle=1;align=center;verticalAlign=top;childLayout=stackLayout;horizontal=1;startSize=26;horizontalStack=0;resizeParent=1;resizeParentMax=0;resizeLast=0;collapsible=1;marginBottom=0;whiteSpace=wrap;html=1;" parent="1" vertex="1">
          <mxGeometry x="-885" y="1079" width="350" height="398" as="geometry" />
        </mxCell>
        <mxCell id="UjiULM0Yq0ChmZ1WHvMP-88" value="- playerClientData: Map&amp;lt;String, PlayerClientData&amp;gt;&lt;div&gt;- currAdventureCard: ClientCard&lt;/div&gt;&lt;div&gt;- currCardState: CardState&lt;/div&gt;&lt;div&gt;- currGameState: gameState&lt;/div&gt;&lt;div&gt;- hourglass: Hourglass&lt;/div&gt;&lt;div&gt;...&lt;/div&gt;" style="text;strokeColor=none;fillColor=none;align=left;verticalAlign=top;spacingLeft=4;spacingRight=4;overflow=hidden;rotatable=0;points=[[0,0.5],[1,0.5]];portConstraint=eastwest;whiteSpace=wrap;html=1;" parent="UjiULM0Yq0ChmZ1WHvMP-87" vertex="1">
          <mxGeometry y="26" width="350" height="94" as="geometry" />
        </mxCell>
        <mxCell id="UjiULM0Yq0ChmZ1WHvMP-89" value="" style="line;strokeWidth=1;fillColor=none;align=left;verticalAlign=middle;spacingTop=-1;spacingLeft=3;spacingRight=3;rotatable=0;labelPosition=right;points=[];portConstraint=eastwest;strokeColor=inherit;" parent="UjiULM0Yq0ChmZ1WHvMP-87" vertex="1">
          <mxGeometry y="120" width="350" height="8" as="geometry" />
        </mxCell>
        <mxCell id="UjiULM0Yq0ChmZ1WHvMP-90" value="&lt;p style=&quot;margin: 0px; font-variant-numeric: normal; font-variant-east-asian: normal; font-variant-alternates: normal; font-size-adjust: none; font-kerning: auto; font-optical-sizing: auto; font-feature-settings: normal; font-variation-settings: normal; font-variant-position: normal; font-variant-emoji: normal; font-stretch: normal; line-height: normal;&quot; class=&quot;p1&quot;&gt;&lt;span style=&quot;background-color: transparent; color: light-dark(rgb(0, 0, 0), rgb(255, 255, 255)); font-variant-ligatures: no-common-ligatures;&quot;&gt;+ setGameState(GameState): void&lt;/span&gt;&lt;/p&gt;&lt;p style=&quot;margin: 0px; font-variant-numeric: normal; font-variant-east-asian: normal; font-variant-alternates: normal; font-size-adjust: none; font-kerning: auto; font-optical-sizing: auto; font-feature-settings: normal; font-variation-settings: normal; font-variant-position: normal; font-variant-emoji: normal; font-stretch: normal; line-height: normal;&quot; class=&quot;p1&quot;&gt;&lt;span style=&quot;font-variant-ligatures: no-common-ligatures;&quot; class=&quot;s1&quot;&gt;&lt;span style=&quot;background-color: transparent; color: light-dark(rgb(0, 0, 0), rgb(255, 255, 255));&quot;&gt;+&lt;/span&gt;&lt;font face=&quot;Helvetica&quot;&gt;&amp;nbsp;getGameState(): GameState&lt;/font&gt;&lt;/span&gt;&lt;/p&gt;&lt;p style=&quot;margin: 0px; font-variant-numeric: normal; font-variant-east-asian: normal; font-variant-alternates: normal; font-size-adjust: none; font-kerning: auto; font-optical-sizing: auto; font-feature-settings: normal; font-variation-settings: normal; font-variant-position: normal; font-variant-emoji: normal; font-stretch: normal; line-height: normal;&quot; class=&quot;p1&quot;&gt;&lt;span style=&quot;font-variant-ligatures: no-common-ligatures;&quot; class=&quot;s1&quot;&gt;&lt;span style=&quot;background-color: transparent; color: light-dark(rgb(0, 0, 0), rgb(255, 255, 255));&quot;&gt;+&lt;/span&gt;&lt;font face=&quot;Helvetica&quot;&gt;&amp;nbsp;setCardState(CardState): void&lt;/font&gt;&lt;/span&gt;&lt;/p&gt;&lt;p style=&quot;margin: 0px; font-variant-numeric: normal; font-variant-east-asian: normal; font-variant-alternates: normal; font-size-adjust: none; font-kerning: auto; font-optical-sizing: auto; font-feature-settings: normal; font-variation-settings: normal; font-variant-position: normal; font-variant-emoji: normal; font-stretch: normal; line-height: normal;&quot; class=&quot;p1&quot;&gt;&lt;span style=&quot;font-variant-ligatures: no-common-ligatures;&quot; class=&quot;s1&quot;&gt;&lt;span style=&quot;background-color: transparent; color: light-dark(rgb(0, 0, 0), rgb(255, 255, 255));&quot;&gt;+&lt;/span&gt;&lt;font face=&quot;Helvetica&quot;&gt;&amp;nbsp;setCurrAdventureCard(ClientCard): void&lt;/font&gt;&lt;/span&gt;&lt;/p&gt;&lt;p style=&quot;margin: 0px; font-variant-numeric: normal; font-variant-east-asian: normal; font-variant-alternates: normal; font-size-adjust: none; font-kerning: auto; font-optical-sizing: auto; font-feature-settings: normal; font-variation-settings: normal; font-variant-position: normal; font-variant-emoji: normal; font-stretch: normal; line-height: normal;&quot; class=&quot;p1&quot;&gt;&lt;span style=&quot;font-variant-ligatures: no-common-ligatures;&quot; class=&quot;s1&quot;&gt;&lt;span style=&quot;background-color: transparent; color: light-dark(rgb(0, 0, 0), rgb(255, 255, 255));&quot;&gt;+&lt;/span&gt;&lt;font face=&quot;Helvetica&quot;&gt;&amp;nbsp;getCurrAdventureCard(): ClientCard&lt;/font&gt;&lt;/span&gt;&lt;/p&gt;&lt;p style=&quot;margin: 0px; font-variant-numeric: normal; font-variant-east-asian: normal; font-variant-alternates: normal; font-size-adjust: none; font-kerning: auto; font-optical-sizing: auto; font-feature-settings: normal; font-variation-settings: normal; font-variant-position: normal; font-variant-emoji: normal; font-stretch: normal; line-height: normal;&quot; class=&quot;p1&quot;&gt;&lt;span style=&quot;font-variant-ligatures: no-common-ligatures;&quot; class=&quot;s1&quot;&gt;&lt;span style=&quot;background-color: transparent; color: light-dark(rgb(0, 0, 0), rgb(255, 255, 255));&quot;&gt;+&lt;/span&gt;&lt;font face=&quot;Helvetica&quot;&gt;&amp;nbsp;setCurrentPlayer(String): void&lt;/font&gt;&lt;/span&gt;&lt;/p&gt;&lt;p style=&quot;margin: 0px; font-variant-numeric: normal; font-variant-east-asian: normal; font-variant-alternates: normal; font-size-adjust: none; font-kerning: auto; font-optical-sizing: auto; font-feature-settings: normal; font-variation-settings: normal; font-variant-position: normal; font-variant-emoji: normal; font-stretch: normal; line-height: normal;&quot; class=&quot;p1&quot;&gt;&lt;span style=&quot;font-variant-ligatures: no-common-ligatures;&quot; class=&quot;s1&quot;&gt;&lt;span style=&quot;background-color: transparent; color: light-dark(rgb(0, 0, 0), rgb(255, 255, 255));&quot;&gt;+&lt;/span&gt;&lt;font face=&quot;Helvetica&quot;&gt;&amp;nbsp;addPlayer(String, PlayerColor, boolean, boolean): void&lt;/font&gt;&lt;/span&gt;&lt;/p&gt;&lt;p style=&quot;margin: 0px; font-variant-numeric: normal; font-variant-east-asian: normal; font-variant-alternates: normal; font-size-adjust: none; font-kerning: auto; font-optical-sizing: auto; font-feature-settings: normal; font-variation-settings: normal; font-variant-position: normal; font-variant-emoji: normal; font-stretch: normal; line-height: normal;&quot; class=&quot;p1&quot;&gt;&lt;span style=&quot;font-variant-ligatures: no-common-ligatures;&quot; class=&quot;s1&quot;&gt;&lt;span style=&quot;background-color: transparent; color: light-dark(rgb(0, 0, 0), rgb(255, 255, 255));&quot;&gt;+&lt;/span&gt;&lt;font face=&quot;Helvetica&quot;&gt;&amp;nbsp;getShipboardOf(String): ShipBoardClient&lt;/font&gt;&lt;/span&gt;&lt;/p&gt;&lt;p style=&quot;margin: 0px; font-variant-numeric: normal; font-variant-east-asian: normal; font-variant-alternates: normal; font-size-adjust: none; font-kerning: auto; font-optical-sizing: auto; font-feature-settings: normal; font-variation-settings: normal; font-variant-position: normal; font-variant-emoji: normal; font-stretch: normal; line-height: normal;&quot; class=&quot;p1&quot;&gt;&lt;span style=&quot;font-variant-ligatures: no-common-ligatures;&quot; class=&quot;s1&quot;&gt;&lt;span style=&quot;background-color: transparent; color: light-dark(rgb(0, 0, 0), rgb(255, 255, 255));&quot;&gt;+&lt;/span&gt;&lt;font face=&quot;Helvetica&quot;&gt;&amp;nbsp;getMyShipboard(): ShipBoardClient&lt;/font&gt;&lt;/span&gt;&lt;/p&gt;&lt;p style=&quot;margin: 0px; font-variant-numeric: normal; font-variant-east-asian: normal; font-variant-alternates: normal; font-size-adjust: none; font-kerning: auto; font-optical-sizing: auto; font-feature-settings: normal; font-variation-settings: normal; font-variant-position: normal; font-variant-emoji: normal; font-stretch: normal; line-height: normal;&quot; class=&quot;p1&quot;&gt;&lt;span style=&quot;font-variant-ligatures: no-common-ligatures;&quot; class=&quot;s1&quot;&gt;&lt;span style=&quot;background-color: transparent; color: light-dark(rgb(0, 0, 0), rgb(255, 255, 255));&quot;&gt;+&lt;/span&gt;&lt;font face=&quot;Helvetica&quot;&gt;&amp;nbsp;getPlayerClientData(): Map&amp;lt;String, PlayerClientData&amp;gt;&lt;/font&gt;&lt;/span&gt;&lt;/p&gt;&lt;p style=&quot;margin: 0px; font-variant-numeric: normal; font-variant-east-asian: normal; font-variant-alternates: normal; font-size-adjust: none; font-kerning: auto; font-optical-sizing: auto; font-feature-settings: normal; font-variation-settings: normal; font-variant-position: normal; font-variant-emoji: normal; font-stretch: normal; line-height: normal;&quot; class=&quot;p1&quot;&gt;&lt;span style=&quot;font-variant-ligatures: no-common-ligatures;&quot; class=&quot;s1&quot;&gt;&lt;span style=&quot;background-color: transparent; color: light-dark(rgb(0, 0, 0), rgb(255, 255, 255));&quot;&gt;+&lt;/span&gt;&lt;font face=&quot;Helvetica&quot;&gt;&amp;nbsp;updatePlayerCredits(String, int): void&lt;/font&gt;&lt;/span&gt;&lt;/p&gt;&lt;p style=&quot;margin: 0px; font-variant-numeric: normal; font-variant-east-asian: normal; font-variant-alternates: normal; font-size-adjust: none; font-kerning: auto; font-optical-sizing: auto; font-feature-settings: normal; font-variation-settings: normal; font-variant-position: normal; font-variant-emoji: normal; font-stretch: normal; line-height: normal;&quot; class=&quot;p1&quot;&gt;&lt;span style=&quot;font-variant-ligatures: no-common-ligatures;&quot; class=&quot;s1&quot;&gt;&lt;span style=&quot;background-color: transparent; color: light-dark(rgb(0, 0, 0), rgb(255, 255, 255));&quot;&gt;+&lt;/span&gt;&lt;font face=&quot;Helvetica&quot;&gt;&amp;nbsp;updatePlayerPosition(String, int): void&lt;/font&gt;&lt;/span&gt;&lt;/p&gt;&lt;p style=&quot;margin: 0px; font-variant-numeric: normal; font-variant-east-asian: normal; font-variant-alternates: normal; font-size-adjust: none; font-kerning: auto; font-optical-sizing: auto; font-feature-settings: normal; font-variation-settings: normal; font-variant-position: normal; font-variant-emoji: normal; font-stretch: normal; line-height: normal;&quot; class=&quot;p1&quot;&gt;&lt;span style=&quot;font-variant-ligatures: no-common-ligatures;&quot; class=&quot;s1&quot;&gt;&lt;span style=&quot;background-color: transparent; color: light-dark(rgb(0, 0, 0), rgb(255, 255, 255));&quot;&gt;+&lt;/span&gt;&lt;font face=&quot;Helvetica&quot;&gt;&amp;nbsp;getVisibleComponents(): Map&amp;lt;Integer, Component&amp;gt;&lt;/font&gt;&lt;/span&gt;&lt;/p&gt;&lt;p style=&quot;margin: 0px; font-variant-numeric: normal; font-variant-east-asian: normal; font-variant-alternates: normal; font-size-adjust: none; font-kerning: auto; font-optical-sizing: auto; font-feature-settings: normal; font-variation-settings: normal; font-variant-position: normal; font-variant-emoji: normal; font-stretch: normal; line-height: normal;&quot; class=&quot;p1&quot;&gt;&lt;span style=&quot;font-variant-ligatures: no-common-ligatures;&quot; class=&quot;s1&quot;&gt;&lt;span style=&quot;background-color: transparent; color: light-dark(rgb(0, 0, 0), rgb(255, 255, 255));&quot;&gt;+&lt;/span&gt;&lt;font face=&quot;Helvetica&quot;&gt;&amp;nbsp;refreshShipBoardOf(String): void&lt;/font&gt;&lt;/span&gt;&lt;/p&gt;&lt;p style=&quot;margin: 0px; font-variant-numeric: normal; font-variant-east-asian: normal; font-variant-alternates: normal; font-size-adjust: none; font-kerning: auto; font-optical-sizing: auto; font-feature-settings: normal; font-variation-settings: normal; font-variant-position: normal; font-variant-emoji: normal; font-stretch: normal; line-height: normal;&quot; class=&quot;p1&quot;&gt;&lt;span style=&quot;font-variant-ligatures: no-common-ligatures;&quot; class=&quot;s1&quot;&gt;&lt;span style=&quot;background-color: transparent; color: light-dark(rgb(0, 0, 0), rgb(255, 255, 255));&quot;&gt;+&lt;/span&gt;&lt;font face=&quot;Helvetica&quot;&gt;&amp;nbsp;refreshVisibleComponents(): void&lt;/font&gt;&lt;/span&gt;&lt;/p&gt;&lt;p style=&quot;margin: 0px; font-variant-numeric: normal; font-variant-east-asian: normal; font-variant-alternates: normal; font-size-adjust: none; font-kerning: auto; font-optical-sizing: auto; font-feature-settings: normal; font-variation-settings: normal; font-variant-position: normal; font-variant-emoji: normal; font-stretch: normal; line-height: normal;&quot; class=&quot;p1&quot;&gt;&lt;span style=&quot;font-variant-ligatures: no-common-ligatures;&quot; class=&quot;s1&quot;&gt;&lt;span style=&quot;background-color: transparent; color: light-dark(rgb(0, 0, 0), rgb(255, 255, 255));&quot;&gt;+&lt;/span&gt;&lt;font face=&quot;Helvetica&quot;&gt;&amp;nbsp;refreshRanking(): void&lt;/font&gt;&lt;/span&gt;&lt;/p&gt;&lt;p style=&quot;margin: 0px; font-variant-numeric: normal; font-variant-east-asian: normal; font-variant-alternates: normal; font-size-adjust: none; font-kerning: auto; font-optical-sizing: auto; font-feature-settings: normal; font-variation-settings: normal; font-variant-position: normal; font-variant-emoji: normal; font-stretch: normal; line-height: normal;&quot; class=&quot;p1&quot;&gt;&lt;span style=&quot;font-variant-ligatures: no-common-ligatures;&quot; class=&quot;s1&quot;&gt;&lt;span style=&quot;background-color: transparent; color: light-dark(rgb(0, 0, 0), rgb(255, 255, 255));&quot;&gt;+&lt;/span&gt;&lt;font face=&quot;Helvetica&quot;&gt;&amp;nbsp;getSortedRanking(): List&lt;/font&gt;&lt;/span&gt;&lt;/p&gt;&lt;p style=&quot;margin: 0px; font-variant-numeric: normal; font-variant-east-asian: normal; font-variant-alternates: normal; font-size-adjust: none; font-kerning: auto; font-optical-sizing: auto; font-feature-settings: normal; font-variation-settings: normal; font-variant-position: normal; font-variant-emoji: normal; font-stretch: normal; line-height: normal;&quot; class=&quot;p1&quot;&gt;&lt;span style=&quot;font-variant-ligatures: no-common-ligatures;&quot; class=&quot;s1&quot;&gt;&lt;font face=&quot;Helvetica&quot;&gt;...&lt;/font&gt;&lt;/span&gt;&lt;/p&gt;" style="text;strokeColor=none;fillColor=none;align=left;verticalAlign=top;spacingLeft=4;spacingRight=4;overflow=hidden;rotatable=0;points=[[0,0.5],[1,0.5]];portConstraint=eastwest;whiteSpace=wrap;html=1;" parent="UjiULM0Yq0ChmZ1WHvMP-87" vertex="1">
          <mxGeometry y="128" width="350" height="270" as="geometry" />
        </mxCell>
        <mxCell id="PPUQBIdJS-AbmWnq9R_o-73" style="edgeStyle=orthogonalEdgeStyle;rounded=0;orthogonalLoop=1;jettySize=auto;html=1;" parent="1" source="UjiULM0Yq0ChmZ1WHvMP-100" target="UjiULM0Yq0ChmZ1WHvMP-31" edge="1">
          <mxGeometry relative="1" as="geometry" />
        </mxCell>
        <mxCell id="PPUQBIdJS-AbmWnq9R_o-74" style="edgeStyle=orthogonalEdgeStyle;rounded=0;orthogonalLoop=1;jettySize=auto;html=1;" parent="1" source="UjiULM0Yq0ChmZ1WHvMP-100" target="PPUQBIdJS-AbmWnq9R_o-20" edge="1">
          <mxGeometry relative="1" as="geometry">
            <Array as="points">
              <mxPoint x="2255" y="610" />
              <mxPoint x="2255" y="446" />
            </Array>
          </mxGeometry>
        </mxCell>
        <mxCell id="PPUQBIdJS-AbmWnq9R_o-87" style="edgeStyle=orthogonalEdgeStyle;rounded=0;orthogonalLoop=1;jettySize=auto;html=1;" parent="1" source="UjiULM0Yq0ChmZ1WHvMP-100" target="PPUQBIdJS-AbmWnq9R_o-37" edge="1">
          <mxGeometry relative="1" as="geometry" />
        </mxCell>
        <mxCell id="PPUQBIdJS-AbmWnq9R_o-88" style="edgeStyle=orthogonalEdgeStyle;rounded=0;orthogonalLoop=1;jettySize=auto;html=1;" parent="1" source="UjiULM0Yq0ChmZ1WHvMP-100" target="PPUQBIdJS-AbmWnq9R_o-16" edge="1">
          <mxGeometry relative="1" as="geometry">
            <Array as="points">
              <mxPoint x="2030" y="1100" />
              <mxPoint x="1895" y="1100" />
            </Array>
          </mxGeometry>
        </mxCell>
        <mxCell id="UjiULM0Yq0ChmZ1WHvMP-100" value="GameModel" style="swimlane;fontStyle=1;align=center;verticalAlign=top;childLayout=stackLayout;horizontal=1;startSize=26;horizontalStack=0;resizeParent=1;resizeParentMax=0;resizeLast=0;collapsible=1;marginBottom=0;whiteSpace=wrap;html=1;" parent="1" vertex="1">
          <mxGeometry x="1870" y="567" width="360" height="400" as="geometry" />
        </mxCell>
        <mxCell id="UjiULM0Yq0ChmZ1WHvMP-101" value="- gameId: String&lt;div&gt;- isTestFlight: boolean&lt;/div&gt;&lt;div&gt;- maxPlayers: int&lt;/div&gt;&lt;div&gt;- isStarted: boolean&lt;/div&gt;&lt;div&gt;- currAdventureCard: AventureCard&lt;/div&gt;&lt;div&gt;- flyingBoard: FlyingBoard&lt;/div&gt;&lt;div&gt;- players: ConcurrentHashMap&amp;lt;String, Player&amp;gt;&lt;/div&gt;&lt;div&gt;- currRanking: List&amp;lt;Player&amp;gt;&lt;/div&gt;&lt;div&gt;- playerIterator: Iterator&amp;lt;Player&amp;gt;&lt;/div&gt;&lt;div&gt;- currGameState: GameState&lt;/div&gt;&lt;div&gt;- deck: Deck&lt;/div&gt;&lt;div&gt;- componentTable: ComponentTable&lt;/div&gt;&lt;div&gt;- gameClientNotifier: GameClientNotifier&lt;/div&gt;" style="text;strokeColor=none;fillColor=none;align=left;verticalAlign=top;spacingLeft=4;spacingRight=4;overflow=hidden;rotatable=0;points=[[0,0.5],[1,0.5]];portConstraint=eastwest;whiteSpace=wrap;html=1;" parent="UjiULM0Yq0ChmZ1WHvMP-100" vertex="1">
          <mxGeometry y="26" width="360" height="204" as="geometry" />
        </mxCell>
        <mxCell id="UjiULM0Yq0ChmZ1WHvMP-102" value="" style="line;strokeWidth=1;fillColor=none;align=left;verticalAlign=middle;spacingTop=-1;spacingLeft=3;spacingRight=3;rotatable=0;labelPosition=right;points=[];portConstraint=eastwest;strokeColor=inherit;" parent="UjiULM0Yq0ChmZ1WHvMP-100" vertex="1">
          <mxGeometry y="230" width="360" height="8" as="geometry" />
        </mxCell>
        <mxCell id="UjiULM0Yq0ChmZ1WHvMP-103" value="+ addPlayer(String, PlayerColor, CallableOnClientController): void&lt;div&gt;+ removePlayer(String): void&lt;/div&gt;&lt;div&gt;+ calculatePlayerCredits(): void&lt;/div&gt;&lt;div&gt;+ startCard(): void&lt;/div&gt;&lt;div&gt;+ hourglassEnded(): void&lt;/div&gt;&lt;div&gt;+ handleCrewPlacementPhase(): void&lt;/div&gt;&lt;div&gt;+ placeCrewAutomatically(): void&lt;/div&gt;&lt;div&gt;+ notifyValidShipBoards(): void&lt;/div&gt;&lt;div&gt;+ notifyInvalidShipBoards(): void&lt;/div&gt;&lt;div&gt;+ checkAndTransitionToNextPhase(): void&lt;/div&gt;" style="text;strokeColor=none;fillColor=none;align=left;verticalAlign=top;spacingLeft=4;spacingRight=4;overflow=hidden;rotatable=0;points=[[0,0.5],[1,0.5]];portConstraint=eastwest;whiteSpace=wrap;html=1;" parent="UjiULM0Yq0ChmZ1WHvMP-100" vertex="1">
          <mxGeometry y="238" width="360" height="162" as="geometry" />
        </mxCell>
        <mxCell id="PPUQBIdJS-AbmWnq9R_o-62" style="edgeStyle=orthogonalEdgeStyle;rounded=0;orthogonalLoop=1;jettySize=auto;html=1;dashed=1;dashPattern=8 8;endArrow=block;endFill=0;" parent="1" source="UjiULM0Yq0ChmZ1WHvMP-104" target="UjiULM0Yq0ChmZ1WHvMP-105" edge="1">
          <mxGeometry relative="1" as="geometry" />
        </mxCell>
        <mxCell id="PPUQBIdJS-AbmWnq9R_o-63" style="edgeStyle=orthogonalEdgeStyle;rounded=0;orthogonalLoop=1;jettySize=auto;html=1;dashed=1;dashPattern=8 8;endArrow=block;endFill=0;" parent="1" source="UjiULM0Yq0ChmZ1WHvMP-104" target="UjiULM0Yq0ChmZ1WHvMP-109" edge="1">
          <mxGeometry relative="1" as="geometry" />
        </mxCell>
        <mxCell id="UjiULM0Yq0ChmZ1WHvMP-104" value="&lt;p style=&quot;margin:0px;margin-top:4px;text-align:center;&quot;&gt;&lt;i&gt;&amp;lt;&amp;lt;Interface&amp;gt;&amp;gt;&lt;/i&gt;&lt;br&gt;&lt;b&gt;ClientView&lt;/b&gt;&lt;/p&gt;&lt;hr size=&quot;1&quot; style=&quot;border-style:solid;&quot;&gt;&lt;p style=&quot;margin:0px;margin-left:4px;&quot;&gt;+ initialize(): void&lt;/p&gt;&lt;p style=&quot;margin:0px;margin-left:4px;&quot;&gt;+ showMainMenu(): void&lt;/p&gt;&lt;p style=&quot;margin:0px;margin-left:4px;&quot;&gt;+ showHandleCubesRewardMenu(): void&lt;/p&gt;&lt;p style=&quot;margin:0px;margin-left:4px;&quot;&gt;+ showStardustMenu(): void&lt;/p&gt;&lt;p style=&quot;margin:0px;margin-left:4px;&quot;&gt;+ notifyTimerEnded(int): void&lt;/p&gt;&lt;p style=&quot;margin:0px;margin-left:4px;&quot;&gt;+ updateTimeLeft(int, int): void&lt;/p&gt;&lt;p style=&quot;margin:0px;margin-left:4px;&quot;&gt;...&lt;/p&gt;" style="verticalAlign=top;align=left;overflow=fill;html=1;whiteSpace=wrap;" parent="1" vertex="1">
          <mxGeometry x="-950" y="670" width="277" height="170" as="geometry" />
        </mxCell>
        <mxCell id="PPUQBIdJS-AbmWnq9R_o-65" style="edgeStyle=orthogonalEdgeStyle;rounded=0;orthogonalLoop=1;jettySize=auto;html=1;" parent="1" source="UjiULM0Yq0ChmZ1WHvMP-105" target="UjiULM0Yq0ChmZ1WHvMP-120" edge="1">
          <mxGeometry relative="1" as="geometry" />
        </mxCell>
        <mxCell id="UjiULM0Yq0ChmZ1WHvMP-105" value="ClientTUIView" style="swimlane;fontStyle=1;align=center;verticalAlign=top;childLayout=stackLayout;horizontal=1;startSize=26;horizontalStack=0;resizeParent=1;resizeParentMax=0;resizeLast=0;collapsible=1;marginBottom=0;whiteSpace=wrap;html=1;" parent="1" vertex="1">
          <mxGeometry x="-1260" y="685" width="160" height="34" as="geometry" />
        </mxCell>
        <mxCell id="UjiULM0Yq0ChmZ1WHvMP-107" value="" style="line;strokeWidth=1;fillColor=none;align=left;verticalAlign=middle;spacingTop=-1;spacingLeft=3;spacingRight=3;rotatable=0;labelPosition=right;points=[];portConstraint=eastwest;strokeColor=inherit;" parent="UjiULM0Yq0ChmZ1WHvMP-105" vertex="1">
          <mxGeometry y="26" width="160" height="8" as="geometry" />
        </mxCell>
        <mxCell id="UjiULM0Yq0ChmZ1WHvMP-109" value="ClientGUIView" style="swimlane;fontStyle=1;align=center;verticalAlign=top;childLayout=stackLayout;horizontal=1;startSize=26;horizontalStack=0;resizeParent=1;resizeParentMax=0;resizeLast=0;collapsible=1;marginBottom=0;whiteSpace=wrap;html=1;" parent="1" vertex="1">
          <mxGeometry x="-1260" y="795" width="160" height="34" as="geometry" />
        </mxCell>
        <mxCell id="UjiULM0Yq0ChmZ1WHvMP-111" value="" style="line;strokeWidth=1;fillColor=none;align=left;verticalAlign=middle;spacingTop=-1;spacingLeft=3;spacingRight=3;rotatable=0;labelPosition=right;points=[];portConstraint=eastwest;strokeColor=inherit;" parent="UjiULM0Yq0ChmZ1WHvMP-109" vertex="1">
          <mxGeometry y="26" width="160" height="8" as="geometry" />
        </mxCell>
        <mxCell id="UjiULM0Yq0ChmZ1WHvMP-113" value="Hourglass" style="swimlane;fontStyle=1;align=center;verticalAlign=top;childLayout=stackLayout;horizontal=1;startSize=26;horizontalStack=0;resizeParent=1;resizeParentMax=0;resizeLast=0;collapsible=1;marginBottom=0;whiteSpace=wrap;html=1;" parent="1" vertex="1">
          <mxGeometry x="-1360" y="1440" width="210" height="150" as="geometry" />
        </mxCell>
        <mxCell id="UjiULM0Yq0ChmZ1WHvMP-114" value="- timeLeft: int&lt;div&gt;- flipsLeft: int&lt;/div&gt;&lt;div&gt;- isRunning: boolean&lt;/div&gt;" style="text;strokeColor=none;fillColor=none;align=left;verticalAlign=top;spacingLeft=4;spacingRight=4;overflow=hidden;rotatable=0;points=[[0,0.5],[1,0.5]];portConstraint=eastwest;whiteSpace=wrap;html=1;" parent="UjiULM0Yq0ChmZ1WHvMP-113" vertex="1">
          <mxGeometry y="26" width="210" height="54" as="geometry" />
        </mxCell>
        <mxCell id="UjiULM0Yq0ChmZ1WHvMP-115" value="" style="line;strokeWidth=1;fillColor=none;align=left;verticalAlign=middle;spacingTop=-1;spacingLeft=3;spacingRight=3;rotatable=0;labelPosition=right;points=[];portConstraint=eastwest;strokeColor=inherit;" parent="UjiULM0Yq0ChmZ1WHvMP-113" vertex="1">
          <mxGeometry y="80" width="210" height="8" as="geometry" />
        </mxCell>
        <mxCell id="UjiULM0Yq0ChmZ1WHvMP-116" value="+ getFlipsLeft: int&lt;div&gt;+ start(ClientView, String): void&lt;/div&gt;&lt;div&gt;+ stop(): void&lt;/div&gt;" style="text;strokeColor=none;fillColor=none;align=left;verticalAlign=top;spacingLeft=4;spacingRight=4;overflow=hidden;rotatable=0;points=[[0,0.5],[1,0.5]];portConstraint=eastwest;whiteSpace=wrap;html=1;" parent="UjiULM0Yq0ChmZ1WHvMP-113" vertex="1">
          <mxGeometry y="88" width="210" height="62" as="geometry" />
        </mxCell>
        <mxCell id="UjiULM0Yq0ChmZ1WHvMP-117" value="&lt;p style=&quot;margin:0px;margin-top:4px;text-align:center;&quot;&gt;&lt;i&gt;&amp;lt;&amp;lt;Enumeration&amp;gt;&amp;gt;&lt;/i&gt;&lt;br&gt;&lt;b&gt;GameState&lt;/b&gt;&lt;/p&gt;&lt;hr size=&quot;1&quot; style=&quot;border-style:solid;&quot;&gt;&lt;p style=&quot;margin:0px;margin-left:4px;&quot;&gt;SETUP,&lt;/p&gt;&lt;p style=&quot;margin:0px;margin-left:4px;&quot;&gt;BUILD_SHIPBOARD,&lt;/p&gt;&lt;p style=&quot;margin:0px;margin-left:4px;&quot;&gt;CHECK_SHIPBOARD,&lt;/p&gt;&lt;p style=&quot;margin:0px;margin-left:4px;&quot;&gt;PLACE_CREW,&lt;/p&gt;&lt;p style=&quot;margin:0px;margin-left:4px;&quot;&gt;CREATE_DECK,&lt;/p&gt;&lt;p style=&quot;margin:0px;margin-left:4px;&quot;&gt;DRAW_CARD,&lt;/p&gt;&lt;p style=&quot;margin:0px;margin-left:4px;&quot;&gt;PLAY_CARD,&lt;/p&gt;&lt;p style=&quot;margin:0px;margin-left:4px;&quot;&gt;CHECK_PLAYERS,&lt;/p&gt;&lt;p style=&quot;margin:0px;margin-left:4px;&quot;&gt;END_GAME&lt;/p&gt;&lt;hr size=&quot;1&quot; style=&quot;border-style:solid;&quot;&gt;&lt;p style=&quot;margin:0px;margin-left:4px;&quot;&gt;+ run(GameModel): void&lt;/p&gt;" style="verticalAlign=top;align=left;overflow=fill;html=1;whiteSpace=wrap;" parent="1" vertex="1">
          <mxGeometry x="2520" y="1169" width="190" height="210" as="geometry" />
        </mxCell>
        <mxCell id="PPUQBIdJS-AbmWnq9R_o-53" style="edgeStyle=orthogonalEdgeStyle;rounded=0;orthogonalLoop=1;jettySize=auto;html=1;entryX=0;entryY=0.5;entryDx=0;entryDy=0;dashed=1;dashPattern=8 8;endArrow=block;endFill=0;" parent="1" source="UjiULM0Yq0ChmZ1WHvMP-118" target="UjiULM0Yq0ChmZ1WHvMP-22" edge="1">
          <mxGeometry relative="1" as="geometry">
            <Array as="points">
              <mxPoint x="-90" y="630" />
              <mxPoint x="820" y="630" />
              <mxPoint x="820" y="984" />
            </Array>
          </mxGeometry>
        </mxCell>
        <mxCell id="PPUQBIdJS-AbmWnq9R_o-68" style="edgeStyle=orthogonalEdgeStyle;rounded=0;orthogonalLoop=1;jettySize=auto;html=1;dashed=1;dashPattern=8 8;endArrow=block;endFill=0;" parent="1" source="UjiULM0Yq0ChmZ1WHvMP-118" target="UjiULM0Yq0ChmZ1WHvMP-13" edge="1">
          <mxGeometry relative="1" as="geometry">
            <Array as="points">
              <mxPoint x="-90" y="630" />
              <mxPoint x="130" y="630" />
            </Array>
          </mxGeometry>
        </mxCell>
        <mxCell id="UjiULM0Yq0ChmZ1WHvMP-118" value="&lt;p style=&quot;margin:0px;margin-top:4px;text-align:center;&quot;&gt;&lt;i&gt;&amp;lt;&amp;lt;Interface&amp;gt;&amp;gt;&lt;/i&gt;&lt;br&gt;&lt;b&gt;CallableOnClientController&lt;/b&gt;&lt;/p&gt;&lt;hr size=&quot;1&quot; style=&quot;border-style:solid;&quot;&gt;&lt;p style=&quot;margin:0px;margin-left:4px;&quot;&gt;&lt;/p&gt;&lt;p style=&quot;margin:0px;margin-left:4px;&quot;&gt;&lt;span style=&quot;font-size: 14px; text-wrap-mode: nowrap;&quot;&gt;+ notifyValidShipBoard(String, String, Component[][], Set&amp;lt;Coordinates&amp;gt;, Map&amp;lt;Class&amp;lt;?&amp;gt;, List&amp;lt;Component&amp;gt;&amp;gt;): void&lt;/span&gt;&lt;br style=&quot;font-size: 14px; text-wrap-mode: nowrap;&quot;&gt;&lt;span style=&quot;font-size: 14px; text-wrap-mode: nowrap;&quot;&gt;+ notifyGameState(String, GameState): void&lt;/span&gt;&lt;/p&gt;&lt;p style=&quot;margin:0px;margin-left:4px;&quot;&gt;&lt;span style=&quot;font-size: 14px; text-wrap-mode: nowrap;&quot;&gt;+ notifyNewPlayerJoined(String, String, String, PlayerColor): void&lt;/span&gt;&lt;/p&gt;&lt;p style=&quot;margin:0px;margin-left:4px;&quot;&gt;&lt;/p&gt;&lt;p style=&quot;margin:0px;margin-left:4px;&quot;&gt;&lt;span style=&quot;font-size: 14px; text-wrap-mode: nowrap;&quot;&gt;+ notifyCurrAdventureCard(String, ClientCard, boolean): void&lt;/span&gt;&lt;/p&gt;&lt;p style=&quot;margin:0px;margin-left:4px;&quot;&gt;&lt;span style=&quot;font-size: 14px; text-wrap-mode: nowrap;&quot;&gt;+ notifyShipBoardUpdate(String, String, Component[][], Map&amp;lt;Class&amp;lt;?&amp;gt;, List&amp;lt;Component&amp;gt;&amp;gt;): void&lt;/span&gt;&lt;span style=&quot;font-size: 14px; text-wrap-mode: nowrap;&quot;&gt;&lt;/span&gt;&lt;/p&gt;&lt;p style=&quot;margin:0px;margin-left:4px;&quot;&gt;&lt;span style=&quot;font-size: 14px; text-wrap-mode: nowrap;&quot;&gt;...&lt;/span&gt;&lt;/p&gt;" style="verticalAlign=top;align=left;overflow=fill;html=1;whiteSpace=wrap;" parent="1" vertex="1">
          <mxGeometry x="-400" y="425" width="720" height="160" as="geometry" />
        </mxCell>
        <mxCell id="PPUQBIdJS-AbmWnq9R_o-69" style="edgeStyle=orthogonalEdgeStyle;rounded=0;orthogonalLoop=1;jettySize=auto;html=1;" parent="1" source="UjiULM0Yq0ChmZ1WHvMP-119" target="UjiULM0Yq0ChmZ1WHvMP-51" edge="1">
          <mxGeometry relative="1" as="geometry" />
        </mxCell>
        <mxCell id="UjiULM0Yq0ChmZ1WHvMP-119" value="&lt;p style=&quot;margin:0px;margin-top:4px;text-align:center;&quot;&gt;&lt;i&gt;&amp;lt;&amp;lt;Interface&amp;gt;&amp;gt;&lt;/i&gt;&lt;br&gt;&lt;b&gt;CallableOnGameController&lt;/b&gt;&lt;/p&gt;&lt;hr size=&quot;1&quot; style=&quot;border-style:solid;&quot;&gt;&lt;p style=&quot;margin:0px;margin-left:4px;&quot;&gt;&lt;span style=&quot;font-size: 14px; text-wrap-mode: nowrap;&quot;&gt;+ handleClientChoice(String, PlayerChoicesDataStructure): void&lt;/span&gt;&lt;/p&gt;&lt;p style=&quot;margin:0px;margin-left:4px;&quot;&gt;&lt;span style=&quot;font-size: 14px; text-wrap-mode: nowrap;&quot;&gt;+ playerWantsToVisitPlanet(String, int): void&lt;/span&gt;&lt;/p&gt;&lt;p style=&quot;margin:0px;margin-left:4px;&quot;&gt;&lt;span style=&quot;font-size: 14px; text-wrap-mode: nowrap;&quot;&gt;+ playerWantsToReserveFocusedComponent(String): void&lt;/span&gt;&lt;/p&gt;&lt;p style=&quot;margin:0px;margin-left:4px;&quot;&gt;&lt;span style=&quot;font-size: 14px; text-wrap-mode: nowrap;&quot;&gt;+ playerEndsBuildShipBoardPhase(String): void&lt;/span&gt;&lt;/p&gt;&lt;p style=&quot;margin:0px;margin-left:4px;&quot;&gt;&lt;span style=&quot;font-size: 14px; text-wrap-mode: nowrap;&quot;&gt;+ playerWantsToVisitLocation(String, Boolean): void&lt;/span&gt;&lt;/p&gt;&lt;p style=&quot;margin:0px;margin-left:4px;&quot;&gt;&lt;/p&gt;&lt;p style=&quot;margin:0px;margin-left:4px;&quot;&gt;&lt;span style=&quot;font-size: 14px; text-wrap-mode: nowrap;&quot;&gt;+ playerWantsToThrowDices(String): void&lt;/span&gt;&lt;/p&gt;&lt;p style=&quot;margin:0px;margin-left:4px;&quot;&gt;&lt;span style=&quot;font-size: 14px; text-wrap-mode: nowrap;&quot;&gt;...&lt;/span&gt;&lt;/p&gt;" style="verticalAlign=top;align=left;overflow=fill;html=1;whiteSpace=wrap;" parent="1" vertex="1">
          <mxGeometry x="1140" y="420" width="420" height="180" as="geometry" />
        </mxCell>
        <mxCell id="UjiULM0Yq0ChmZ1WHvMP-120" value="&lt;p style=&quot;margin:0px;margin-top:4px;text-align:center;&quot;&gt;&lt;i&gt;&amp;lt;&amp;lt;Enumeration&amp;gt;&amp;gt;&lt;/i&gt;&lt;/p&gt;&lt;p style=&quot;margin:0px;margin-top:4px;text-align:center;&quot;&gt;&lt;b&gt;ClientState&lt;/b&gt;&lt;/p&gt;&lt;hr size=&quot;1&quot; style=&quot;border-style:solid;&quot;&gt;&lt;p style=&quot;margin:0px;margin-left:4px;&quot;&gt;REGISTER,&lt;/p&gt;&lt;p style=&quot;margin:0px;margin-left:4px;&quot;&gt;MAIN_MENU,&lt;/p&gt;&lt;p style=&quot;margin:0px;margin-left:4px;&quot;&gt;CREATE_GAME_CHOOSE_NUM_PLAYERS,&lt;/p&gt;&lt;p style=&quot;margin:0px;margin-left:4px;&quot;&gt;CHOOSE_PLANET_MENU,&lt;/p&gt;&lt;p style=&quot;margin:0px;margin-left:4px;&quot;&gt;END_GAME_PHASE,&lt;/p&gt;&lt;p style=&quot;margin:0px;margin-left:4px;&quot;&gt;CHECK_SHIPBOARD_INVALID,&lt;/p&gt;&lt;p style=&quot;margin:0px;margin-left:4px;&quot;&gt;CREW_PLACEMENT_MENU,&lt;/p&gt;&lt;p style=&quot;margin:0px;margin-left:4px;&quot;&gt;...&lt;/p&gt;" style="verticalAlign=top;align=left;overflow=fill;html=1;whiteSpace=wrap;" parent="1" vertex="1">
          <mxGeometry x="-1270" y="440" width="260" height="170" as="geometry" />
        </mxCell>
        <mxCell id="oHir_KhjHk0JjcYHDKme-1" value="ServerDeserializer" style="swimlane;fontStyle=1;align=center;verticalAlign=top;childLayout=stackLayout;horizontal=1;startSize=26;horizontalStack=0;resizeParent=1;resizeParentMax=0;resizeLast=0;collapsible=1;marginBottom=0;whiteSpace=wrap;html=1;" parent="1" vertex="1">
          <mxGeometry x="1105" y="1145" width="240" height="60" as="geometry" />
        </mxCell>
        <mxCell id="oHir_KhjHk0JjcYHDKme-2" value="&lt;span style=&quot;font-size: 14px; text-wrap-mode: nowrap;&quot;&gt;+ deserialize(String, Class&amp;lt;T&amp;gt;): T&lt;/span&gt;" style="text;strokeColor=none;fillColor=none;align=left;verticalAlign=top;spacingLeft=4;spacingRight=4;overflow=hidden;rotatable=0;points=[[0,0.5],[1,0.5]];portConstraint=eastwest;whiteSpace=wrap;html=1;" parent="oHir_KhjHk0JjcYHDKme-1" vertex="1">
          <mxGeometry y="26" width="240" height="34" as="geometry" />
        </mxCell>
        <mxCell id="oHir_KhjHk0JjcYHDKme-3" value="ServerS&lt;span style=&quot;background-color: transparent; color: light-dark(rgb(0, 0, 0), rgb(255, 255, 255));&quot;&gt;erializer&lt;/span&gt;" style="swimlane;fontStyle=1;align=center;verticalAlign=top;childLayout=stackLayout;horizontal=1;startSize=26;horizontalStack=0;resizeParent=1;resizeParentMax=0;resizeLast=0;collapsible=1;marginBottom=0;whiteSpace=wrap;html=1;" parent="1" vertex="1">
          <mxGeometry x="1385" y="1145" width="170" height="60" as="geometry" />
        </mxCell>
        <mxCell id="oHir_KhjHk0JjcYHDKme-4" value="&lt;span style=&quot;font-size: 14px; text-wrap-mode: nowrap;&quot;&gt;+ serialize(T): String&lt;/span&gt;" style="text;strokeColor=none;fillColor=none;align=left;verticalAlign=top;spacingLeft=4;spacingRight=4;overflow=hidden;rotatable=0;points=[[0,0.5],[1,0.5]];portConstraint=eastwest;whiteSpace=wrap;html=1;" parent="oHir_KhjHk0JjcYHDKme-3" vertex="1">
          <mxGeometry y="26" width="170" height="34" as="geometry" />
        </mxCell>
        <mxCell id="PPUQBIdJS-AbmWnq9R_o-2" value="PlayerClientData" style="swimlane;fontStyle=1;align=center;verticalAlign=top;childLayout=stackLayout;horizontal=1;startSize=26;horizontalStack=0;resizeParent=1;resizeParentMax=0;resizeLast=0;collapsible=1;marginBottom=0;whiteSpace=wrap;html=1;" parent="1" vertex="1">
          <mxGeometry x="-1060" y="945" width="160" height="140" as="geometry" />
        </mxCell>
        <mxCell id="PPUQBIdJS-AbmWnq9R_o-3" value="- nickname: String&lt;div&gt;- credits: int&lt;/div&gt;&lt;div&gt;- isLanded: boolean&lt;/div&gt;&lt;div&gt;- flyingBoardPosition: int&lt;/div&gt;&lt;div&gt;- shipboard: ShipBoardClient&lt;/div&gt;&lt;div&gt;- color: PlayerColor&lt;/div&gt;" style="text;strokeColor=none;fillColor=none;align=left;verticalAlign=top;spacingLeft=4;spacingRight=4;overflow=hidden;rotatable=0;points=[[0,0.5],[1,0.5]];portConstraint=eastwest;whiteSpace=wrap;html=1;" parent="PPUQBIdJS-AbmWnq9R_o-2" vertex="1">
          <mxGeometry y="26" width="160" height="114" as="geometry" />
        </mxCell>
        <mxCell id="PPUQBIdJS-AbmWnq9R_o-6" value="ClientCard" style="swimlane;fontStyle=1;align=center;verticalAlign=top;childLayout=stackLayout;horizontal=1;startSize=26;horizontalStack=0;resizeParent=1;resizeParentMax=0;resizeLast=0;collapsible=1;marginBottom=0;whiteSpace=wrap;html=1;" parent="1" vertex="1">
          <mxGeometry x="-1070" y="1500" width="160" height="80" as="geometry" />
        </mxCell>
        <mxCell id="PPUQBIdJS-AbmWnq9R_o-7" value="# cardName: String&lt;div&gt;# imageName: String&lt;/div&gt;&lt;div&gt;# currState: CardState&lt;/div&gt;" style="text;strokeColor=none;fillColor=none;align=left;verticalAlign=top;spacingLeft=4;spacingRight=4;overflow=hidden;rotatable=0;points=[[0,0.5],[1,0.5]];portConstraint=eastwest;whiteSpace=wrap;html=1;" parent="PPUQBIdJS-AbmWnq9R_o-6" vertex="1">
          <mxGeometry y="26" width="160" height="54" as="geometry" />
        </mxCell>
        <mxCell id="PPUQBIdJS-AbmWnq9R_o-14" value="&lt;p style=&quot;margin:0px;margin-top:4px;text-align:center;&quot;&gt;&lt;i&gt;&amp;lt;&amp;lt;Interface&amp;gt;&amp;gt;&lt;/i&gt;&lt;br&gt;&lt;b&gt;ShipBoardClient&lt;/b&gt;&lt;/p&gt;&lt;hr size=&quot;1&quot; style=&quot;border-style:solid;&quot;&gt;&lt;p style=&quot;font-variant-numeric: normal; font-variant-east-asian: normal; font-variant-alternates: normal; font-size-adjust: none; font-kerning: auto; font-optical-sizing: auto; font-feature-settings: normal; font-variation-settings: normal; font-variant-position: normal; font-variant-emoji: normal; font-stretch: normal; line-height: normal; margin: 0px;&quot; class=&quot;p1&quot;&gt;&lt;span style=&quot;font-variant-ligatures: no-common-ligatures;&quot; class=&quot;s1&quot;&gt;&lt;font style=&quot;&quot; face=&quot;Helvetica&quot;&gt;&lt;span style=&quot;&quot; class=&quot;Apple-converted-space&quot;&gt;&amp;nbsp;+&lt;/span&gt;&amp;nbsp;setShipMatrix(Component[][]): void&lt;/font&gt;&lt;/span&gt;&lt;/p&gt;&lt;p style=&quot;font-variant-numeric: normal; font-variant-east-asian: normal; font-variant-alternates: normal; font-size-adjust: none; font-kerning: auto; font-optical-sizing: auto; font-feature-settings: normal; font-variation-settings: normal; font-variant-position: normal; font-variant-emoji: normal; font-stretch: normal; line-height: normal; margin: 0px;&quot; class=&quot;p1&quot;&gt;&lt;span style=&quot;font-variant-ligatures: no-common-ligatures;&quot; class=&quot;s1&quot;&gt;&lt;font face=&quot;Helvetica&quot;&gt;&lt;span class=&quot;Apple-converted-space&quot;&gt;&amp;nbsp;+&lt;/span&gt;&amp;nbsp;getShipMatrix(): Component[][]&lt;/font&gt;&lt;/span&gt;&lt;/p&gt;&lt;p style=&quot;font-variant-numeric: normal; font-variant-east-asian: normal; font-variant-alternates: normal; font-size-adjust: none; font-kerning: auto; font-optical-sizing: auto; font-feature-settings: normal; font-variation-settings: normal; font-variant-position: normal; font-variant-emoji: normal; font-stretch: normal; line-height: normal; margin: 0px;&quot; class=&quot;p1&quot;&gt;&lt;span style=&quot;font-variant-ligatures: no-common-ligatures;&quot; class=&quot;s1&quot;&gt;&lt;font face=&quot;Helvetica&quot;&gt;&lt;span class=&quot;Apple-converted-space&quot;&gt;&amp;nbsp;+&lt;/span&gt;&amp;nbsp;setFocusedComponent(Component): void&lt;/font&gt;&lt;/span&gt;&lt;/p&gt;&lt;p style=&quot;font-variant-numeric: normal; font-variant-east-asian: normal; font-variant-alternates: normal; font-size-adjust: none; font-kerning: auto; font-optical-sizing: auto; font-feature-settings: normal; font-variation-settings: normal; font-variant-position: normal; font-variant-emoji: normal; font-stretch: normal; line-height: normal; margin: 0px;&quot; class=&quot;p1&quot;&gt;&lt;font face=&quot;Helvetica&quot;&gt;&lt;span style=&quot;font-variant-ligatures: no-common-ligatures;&quot; class=&quot;s1&quot;&gt;&lt;span class=&quot;Apple-converted-space&quot;&gt;&amp;nbsp;&lt;/span&gt;&lt;/span&gt;&lt;span style=&quot;font-variant-ligatures: no-common-ligatures; color: light-dark(rgb(0, 0, 0), rgb(255, 255, 255));&quot;&gt;+&lt;/span&gt;&lt;span style=&quot;font-variant-ligatures: no-common-ligatures; color: light-dark(rgb(0, 0, 0), rgb(255, 255, 255));&quot;&gt;&amp;nbsp;getFocusedComponent(): Component&lt;/span&gt;&lt;/font&gt;&lt;/p&gt;&lt;p style=&quot;font-variant-numeric: normal; font-variant-east-asian: normal; font-variant-alternates: normal; font-size-adjust: none; font-kerning: auto; font-optical-sizing: auto; font-feature-settings: normal; font-variation-settings: normal; font-variant-position: normal; font-variant-emoji: normal; font-stretch: normal; line-height: normal; margin: 0px;&quot; class=&quot;p1&quot;&gt;&lt;font face=&quot;Helvetica&quot;&gt;&lt;span style=&quot;font-variant-ligatures: no-common-ligatures;&quot; class=&quot;s1&quot;&gt;&lt;span class=&quot;Apple-converted-space&quot;&gt;&amp;nbsp;&lt;/span&gt;&lt;/span&gt;&lt;span style=&quot;font-variant-ligatures: no-common-ligatures; color: light-dark(rgb(0, 0, 0), rgb(255, 255, 255));&quot;&gt;+&lt;/span&gt;&lt;span style=&quot;font-variant-ligatures: no-common-ligatures; color: light-dark(rgb(0, 0, 0), rgb(255, 255, 255));&quot;&gt;&amp;nbsp;getBookedComponents(): List&lt;/span&gt;&lt;/font&gt;&lt;/p&gt;&lt;p style=&quot;font-variant-numeric: normal; font-variant-east-asian: normal; font-variant-alternates: normal; font-size-adjust: none; font-kerning: auto; font-optical-sizing: auto; font-feature-settings: normal; font-variation-settings: normal; font-variant-position: normal; font-variant-emoji: normal; font-stretch: normal; line-height: normal; margin: 0px;&quot; class=&quot;p1&quot;&gt;&lt;span style=&quot;font-variant-ligatures: no-common-ligatures;&quot; class=&quot;s1&quot;&gt;&lt;font face=&quot;Helvetica&quot;&gt;&lt;span style=&quot;color: light-dark(rgb(0, 0, 0), rgb(255, 255, 255));&quot;&gt;&amp;nbsp;+&lt;/span&gt;&amp;nbsp;placeComponentWithFocus(int, int): void&lt;/font&gt;&lt;/span&gt;&lt;/p&gt;&lt;p style=&quot;font-variant-numeric: normal; font-variant-east-asian: normal; font-variant-alternates: normal; font-size-adjust: none; font-kerning: auto; font-optical-sizing: auto; font-feature-settings: normal; font-variation-settings: normal; font-variant-position: normal; font-variant-emoji: normal; font-stretch: normal; line-height: normal; margin: 0px;&quot; class=&quot;p1&quot;&gt;&lt;span style=&quot;font-variant-ligatures: no-common-ligatures;&quot; class=&quot;s1&quot;&gt;&lt;font face=&quot;Helvetica&quot;&gt;&lt;span class=&quot;Apple-converted-space&quot;&gt;&amp;nbsp;+&lt;/span&gt;&amp;nbsp;isValidPosition(int, int): boolean&lt;/font&gt;&lt;/span&gt;&lt;/p&gt;&lt;p style=&quot;font-variant-numeric: normal; font-variant-east-asian: normal; font-variant-alternates: normal; font-size-adjust: none; font-kerning: auto; font-optical-sizing: auto; font-feature-settings: normal; font-variation-settings: normal; font-variant-position: normal; font-variant-emoji: normal; font-stretch: normal; line-height: normal; margin: 0px;&quot; class=&quot;p1&quot;&gt;&lt;span style=&quot;font-variant-ligatures: no-common-ligatures;&quot; class=&quot;s1&quot;&gt;&lt;font face=&quot;Helvetica&quot;&gt;&lt;span class=&quot;Apple-converted-space&quot;&gt;&amp;nbsp;+&lt;/span&gt;&amp;nbsp;removeAndRecalculateShipParts(int, int): Set&amp;lt;Set&amp;gt;&lt;/font&gt;&lt;/span&gt;&lt;/p&gt;&lt;p style=&quot;font-variant-numeric: normal; font-variant-east-asian: normal; font-variant-alternates: normal; font-size-adjust: none; font-kerning: auto; font-optical-sizing: auto; font-feature-settings: normal; font-variation-settings: normal; font-variant-position: normal; font-variant-emoji: normal; font-stretch: normal; line-height: normal; margin: 0px;&quot; class=&quot;p1&quot;&gt;&lt;span style=&quot;font-variant-ligatures: no-common-ligatures;&quot; class=&quot;s1&quot;&gt;&lt;font face=&quot;Helvetica&quot;&gt;&lt;span class=&quot;Apple-converted-space&quot;&gt;&amp;nbsp;+&lt;/span&gt;&amp;nbsp;isShipCorrect(): boolean&lt;/font&gt;&lt;/span&gt;&lt;/p&gt;&lt;p style=&quot;font-variant-numeric: normal; font-variant-east-asian: normal; font-variant-alternates: normal; font-size-adjust: none; font-kerning: auto; font-optical-sizing: auto; font-feature-settings: normal; font-variation-settings: normal; font-variant-position: normal; font-variant-emoji: normal; font-stretch: normal; line-height: normal; margin: 0px;&quot; class=&quot;p1&quot;&gt;&lt;span style=&quot;font-variant-ligatures: no-common-ligatures;&quot; class=&quot;s1&quot;&gt;&lt;font face=&quot;Helvetica&quot;&gt;&lt;span class=&quot;Apple-converted-space&quot;&gt;&amp;nbsp;+&lt;/span&gt;&amp;nbsp;getCrewMembers(): List&lt;/font&gt;&lt;/span&gt;&lt;/p&gt;&lt;p style=&quot;font-variant-numeric: normal; font-variant-east-asian: normal; font-variant-alternates: normal; font-size-adjust: none; font-kerning: auto; font-optical-sizing: auto; font-feature-settings: normal; font-variation-settings: normal; font-variant-position: normal; font-variant-emoji: normal; font-stretch: normal; line-height: normal; margin: 0px;&quot; class=&quot;p1&quot;&gt;&lt;span style=&quot;font-variant-ligatures: no-common-ligatures;&quot; class=&quot;s1&quot;&gt;&lt;font face=&quot;Helvetica&quot;&gt;&lt;span class=&quot;Apple-converted-space&quot;&gt;&amp;nbsp;+&lt;/span&gt;&amp;nbsp;getCabin(): List&lt;/font&gt;&lt;/span&gt;&lt;/p&gt;&lt;p style=&quot;font-variant-numeric: normal; font-variant-east-asian: normal; font-variant-alternates: normal; font-size-adjust: none; font-kerning: auto; font-optical-sizing: auto; font-feature-settings: normal; font-variation-settings: normal; font-variant-position: normal; font-variant-emoji: normal; font-stretch: normal; line-height: normal; margin: 0px;&quot; class=&quot;p1&quot;&gt;&lt;font face=&quot;Helvetica&quot;&gt;&lt;span style=&quot;font-variant-ligatures: no-common-ligatures;&quot; class=&quot;s1&quot;&gt;&lt;span class=&quot;Apple-converted-space&quot;&gt;&amp;nbsp;&lt;/span&gt;&lt;/span&gt;&lt;span style=&quot;font-variant-ligatures: no-common-ligatures; color: light-dark(rgb(0, 0, 0), rgb(255, 255, 255));&quot;&gt;+&lt;/span&gt;&lt;span style=&quot;font-variant-ligatures: no-common-ligatures; color: light-dark(rgb(0, 0, 0), rgb(255, 255, 255));&quot;&gt;&amp;nbsp;getAllEngines(): List&lt;/span&gt;&lt;/font&gt;&lt;/p&gt;&lt;p style=&quot;font-variant-numeric: normal; font-variant-east-asian: normal; font-variant-alternates: normal; font-size-adjust: none; font-kerning: auto; font-optical-sizing: auto; font-feature-settings: normal; font-variation-settings: normal; font-variant-position: normal; font-variant-emoji: normal; font-stretch: normal; line-height: normal; margin: 0px;&quot; class=&quot;p1&quot;&gt;&lt;font face=&quot;Helvetica&quot;&gt;&lt;span style=&quot;font-variant-ligatures: no-common-ligatures;&quot; class=&quot;s1&quot;&gt;&lt;span class=&quot;Apple-converted-space&quot;&gt;&amp;nbsp;&lt;/span&gt;&lt;/span&gt;&lt;span style=&quot;font-variant-ligatures: no-common-ligatures; color: light-dark(rgb(0, 0, 0), rgb(255, 255, 255));&quot;&gt;+&lt;/span&gt;&lt;span style=&quot;font-variant-ligatures: no-common-ligatures; color: light-dark(rgb(0, 0, 0), rgb(255, 255, 255));&quot;&gt;&amp;nbsp;getAllCannons(): List&lt;/span&gt;&lt;/font&gt;&lt;/p&gt;&lt;p style=&quot;font-variant-numeric: normal; font-variant-east-asian: normal; font-variant-alternates: normal; font-size-adjust: none; font-kerning: auto; font-optical-sizing: auto; font-feature-settings: normal; font-variation-settings: normal; font-variant-position: normal; font-variant-emoji: normal; font-stretch: normal; line-height: normal; margin: 0px;&quot; class=&quot;p1&quot;&gt;&lt;font face=&quot;Helvetica&quot;&gt;&lt;span style=&quot;font-variant-ligatures: no-common-ligatures;&quot; class=&quot;s1&quot;&gt;&lt;span class=&quot;Apple-converted-space&quot;&gt;&amp;nbsp;&lt;/span&gt;&lt;/span&gt;&lt;span style=&quot;font-variant-ligatures: no-common-ligatures; color: light-dark(rgb(0, 0, 0), rgb(255, 255, 255));&quot;&gt;+&lt;/span&gt;&lt;span style=&quot;font-variant-ligatures: no-common-ligatures; color: light-dark(rgb(0, 0, 0), rgb(255, 255, 255));&quot;&gt;&amp;nbsp;getStorages(): List&lt;/span&gt;&lt;/font&gt;&lt;/p&gt;&lt;p style=&quot;font-variant-numeric: normal; font-variant-east-asian: normal; font-variant-alternates: normal; font-size-adjust: none; font-kerning: auto; font-optical-sizing: auto; font-feature-settings: normal; font-variation-settings: normal; font-variant-position: normal; font-variant-emoji: normal; font-stretch: normal; line-height: normal; margin: 0px;&quot; class=&quot;p1&quot;&gt;&lt;font face=&quot;Helvetica&quot;&gt;&lt;span style=&quot;font-variant-ligatures: no-common-ligatures;&quot; class=&quot;s1&quot;&gt;&lt;span class=&quot;Apple-converted-space&quot;&gt;&amp;nbsp;&lt;/span&gt;&lt;/span&gt;&lt;span style=&quot;font-variant-ligatures: no-common-ligatures; color: light-dark(rgb(0, 0, 0), rgb(255, 255, 255));&quot;&gt;+&lt;/span&gt;&lt;span style=&quot;font-variant-ligatures: no-common-ligatures; color: light-dark(rgb(0, 0, 0), rgb(255, 255, 255));&quot;&gt;&amp;nbsp;handleDangerousObject(DangerousObj): int[]&lt;/span&gt;&lt;/font&gt;&lt;/p&gt;&lt;p style=&quot;font-variant-numeric: normal; font-variant-east-asian: normal; font-variant-alternates: normal; font-size-adjust: none; font-kerning: auto; font-optical-sizing: auto; font-feature-settings: normal; font-variation-settings: normal; font-variant-position: normal; font-variant-emoji: normal; font-stretch: normal; line-height: normal; margin: 0px;&quot; class=&quot;p1&quot;&gt;&lt;font face=&quot;Helvetica&quot;&gt;&lt;span style=&quot;font-variant-ligatures: no-common-ligatures;&quot; class=&quot;s1&quot;&gt;&lt;span class=&quot;Apple-converted-space&quot;&gt;&amp;nbsp;&lt;/span&gt;&lt;/span&gt;&lt;span style=&quot;font-variant-ligatures: no-common-ligatures; color: light-dark(rgb(0, 0, 0), rgb(255, 255, 255));&quot;&gt;+&lt;/span&gt;&lt;span style=&quot;font-variant-ligatures: no-common-ligatures; color: light-dark(rgb(0, 0, 0), rgb(255, 255, 255));&quot;&gt;&amp;nbsp;countExposed(): int&lt;/span&gt;&lt;/font&gt;&lt;/p&gt;&lt;p style=&quot;font-variant-numeric: normal; font-variant-east-asian: normal; font-variant-alternates: normal; font-size-adjust: none; font-kerning: auto; font-optical-sizing: auto; font-feature-settings: normal; font-variation-settings: normal; font-variant-position: normal; font-variant-emoji: normal; font-stretch: normal; line-height: normal; margin: 0px;&quot; class=&quot;p1&quot;&gt;&lt;font face=&quot;Helvetica&quot;&gt;&lt;span style=&quot;font-variant-ligatures: no-common-ligatures;&quot; class=&quot;s1&quot;&gt;&lt;span class=&quot;Apple-converted-space&quot;&gt;&amp;nbsp;&lt;/span&gt;&lt;/span&gt;&lt;span style=&quot;font-variant-ligatures: no-common-ligatures; color: light-dark(rgb(0, 0, 0), rgb(255, 255, 255));&quot;&gt;+&lt;/span&gt;&lt;span style=&quot;font-variant-ligatures: no-common-ligatures; color: light-dark(rgb(0, 0, 0), rgb(255, 255, 255));&quot;&gt;&amp;nbsp;isThereACannon(int, Direction): boolean&lt;/span&gt;&lt;/font&gt;&lt;/p&gt;&lt;p style=&quot;font-variant-numeric: normal; font-variant-east-asian: normal; font-variant-alternates: normal; font-size-adjust: none; font-kerning: auto; font-optical-sizing: auto; font-feature-settings: normal; font-variation-settings: normal; font-variant-position: normal; font-variant-emoji: normal; font-stretch: normal; line-height: normal; margin: 0px;&quot; class=&quot;p1&quot;&gt;&lt;font face=&quot;Helvetica&quot;&gt;&lt;span style=&quot;font-variant-ligatures: no-common-ligatures;&quot; class=&quot;s1&quot;&gt;&lt;span class=&quot;Apple-converted-space&quot;&gt;&amp;nbsp;&lt;/span&gt;&lt;/span&gt;&lt;span style=&quot;font-variant-ligatures: no-common-ligatures; color: light-dark(rgb(0, 0, 0), rgb(255, 255, 255));&quot;&gt;+&lt;/span&gt;&lt;span style=&quot;font-variant-ligatures: no-common-ligatures; color: light-dark(rgb(0, 0, 0), rgb(255, 255, 255));&quot;&gt;&amp;nbsp;isThereADoubleCannon(int, Direction): boolean&lt;/span&gt;&lt;/font&gt;&lt;/p&gt;&lt;p style=&quot;font-variant-numeric: normal; font-variant-east-asian: normal; font-variant-alternates: normal; font-size-adjust: none; font-kerning: auto; font-optical-sizing: auto; font-feature-settings: normal; font-variation-settings: normal; font-variant-position: normal; font-variant-emoji: normal; font-stretch: normal; line-height: normal; margin: 0px;&quot; class=&quot;p1&quot;&gt;&lt;font face=&quot;Helvetica&quot;&gt;&lt;span style=&quot;font-variant-ligatures: no-common-ligatures;&quot; class=&quot;s1&quot;&gt;&lt;span class=&quot;Apple-converted-space&quot;&gt;&amp;nbsp;&lt;/span&gt;&lt;/span&gt;&lt;span style=&quot;font-variant-ligatures: no-common-ligatures; color: light-dark(rgb(0, 0, 0), rgb(255, 255, 255));&quot;&gt;+&lt;/span&gt;&lt;span style=&quot;font-variant-ligatures: no-common-ligatures; color: light-dark(rgb(0, 0, 0), rgb(255, 255, 255));&quot;&gt;&amp;nbsp;getComponentAt(Coordinates): Component&lt;/span&gt;&lt;/font&gt;&lt;/p&gt;&lt;p style=&quot;font-variant-numeric: normal; font-variant-east-asian: normal; font-variant-alternates: normal; font-size-adjust: none; font-kerning: auto; font-optical-sizing: auto; font-feature-settings: normal; font-variation-settings: normal; font-variant-position: normal; font-variant-emoji: normal; font-stretch: normal; line-height: normal; margin: 0px;&quot; class=&quot;p1&quot;&gt;&lt;font face=&quot;Helvetica&quot;&gt;&lt;span style=&quot;font-variant-ligatures: no-common-ligatures;&quot; class=&quot;s1&quot;&gt;&lt;span class=&quot;Apple-converted-space&quot;&gt;&amp;nbsp;&lt;/span&gt;&lt;/span&gt;&lt;span style=&quot;font-variant-ligatures: no-common-ligatures; color: light-dark(rgb(0, 0, 0), rgb(255, 255, 255));&quot;&gt;+&lt;/span&gt;&lt;span style=&quot;font-variant-ligatures: no-common-ligatures; color: light-dark(rgb(0, 0, 0), rgb(255, 255, 255));&quot;&gt;&amp;nbsp;releaseFocusedComponent(): Component&lt;/span&gt;&lt;/font&gt;&lt;/p&gt;&lt;p style=&quot;font-variant-numeric: normal; font-variant-east-asian: normal; font-variant-alternates: normal; font-size-adjust: none; font-kerning: auto; font-optical-sizing: auto; font-feature-settings: normal; font-variation-settings: normal; font-variant-position: normal; font-variant-emoji: normal; font-stretch: normal; line-height: normal; margin: 0px;&quot; class=&quot;p1&quot;&gt;&lt;font face=&quot;Helvetica&quot;&gt;&lt;span style=&quot;font-variant-ligatures: no-common-ligatures;&quot; class=&quot;s1&quot;&gt;&lt;span class=&quot;Apple-converted-space&quot;&gt;&amp;nbsp;&lt;/span&gt;&lt;/span&gt;&lt;span style=&quot;font-variant-ligatures: no-common-ligatures; color: light-dark(rgb(0, 0, 0), rgb(255, 255, 255));&quot;&gt;+&lt;/span&gt;&lt;span style=&quot;font-variant-ligatures: no-common-ligatures; color: light-dark(rgb(0, 0, 0), rgb(255, 255, 255));&quot;&gt;&amp;nbsp;setComponentsPerType(Map&amp;lt;Class&amp;lt;?&amp;gt;, List&amp;gt;): void&lt;/span&gt;&lt;/font&gt;&lt;/p&gt;&lt;p style=&quot;font-variant-numeric: normal; font-variant-east-asian: normal; font-variant-alternates: normal; font-size-adjust: none; font-kerning: auto; font-optical-sizing: auto; font-feature-settings: normal; font-variation-settings: normal; font-variant-position: normal; font-variant-emoji: normal; font-stretch: normal; line-height: normal; margin: 0px;&quot; class=&quot;p1&quot;&gt;&lt;font face=&quot;Helvetica&quot;&gt;&lt;span style=&quot;font-variant-ligatures: no-common-ligatures;&quot; class=&quot;s1&quot;&gt;&lt;span class=&quot;Apple-converted-space&quot;&gt;&amp;nbsp;&lt;/span&gt;&lt;/span&gt;&lt;span style=&quot;font-variant-ligatures: no-common-ligatures; color: light-dark(rgb(0, 0, 0), rgb(255, 255, 255));&quot;&gt;+&lt;/span&gt;&lt;span style=&quot;font-variant-ligatures: no-common-ligatures; color: light-dark(rgb(0, 0, 0), rgb(255, 255, 255));&quot;&gt;&amp;nbsp;getComponentsPerType(): Map&amp;lt;Class&amp;lt;?&amp;gt;, List&amp;gt;&lt;/span&gt;&lt;/font&gt;&lt;/p&gt;" style="verticalAlign=top;align=left;overflow=fill;html=1;whiteSpace=wrap;" parent="1" vertex="1">
          <mxGeometry x="-1465" y="1000" width="315" height="370" as="geometry" />
        </mxCell>
        <mxCell id="PPUQBIdJS-AbmWnq9R_o-15" style="edgeStyle=orthogonalEdgeStyle;rounded=0;orthogonalLoop=1;jettySize=auto;html=1;exitX=0.5;exitY=1;exitDx=0;exitDy=0;" parent="1" source="PPUQBIdJS-AbmWnq9R_o-14" target="PPUQBIdJS-AbmWnq9R_o-14" edge="1">
          <mxGeometry relative="1" as="geometry" />
        </mxCell>
        <mxCell id="PPUQBIdJS-AbmWnq9R_o-90" style="edgeStyle=orthogonalEdgeStyle;rounded=0;orthogonalLoop=1;jettySize=auto;html=1;" parent="1" source="PPUQBIdJS-AbmWnq9R_o-16" target="UjiULM0Yq0ChmZ1WHvMP-31" edge="1">
          <mxGeometry relative="1" as="geometry">
            <Array as="points">
              <mxPoint x="1790" y="950" />
              <mxPoint x="1790" y="950" />
            </Array>
          </mxGeometry>
        </mxCell>
        <mxCell id="PPUQBIdJS-AbmWnq9R_o-16" value="Deck" style="swimlane;fontStyle=1;align=center;verticalAlign=top;childLayout=stackLayout;horizontal=1;startSize=26;horizontalStack=0;resizeParent=1;resizeParentMax=0;resizeLast=0;collapsible=1;marginBottom=0;whiteSpace=wrap;html=1;" parent="1" vertex="1">
          <mxGeometry x="1760" y="1120" width="270" height="240" as="geometry" />
        </mxCell>
        <mxCell id="PPUQBIdJS-AbmWnq9R_o-17" value="- allCards: List&amp;lt;AdventureCard&amp;gt;&lt;div&gt;- littleVisibleDecks: List&amp;lt;List&amp;lt;AdventureCard&amp;gt;&amp;gt;&lt;/div&gt;&lt;div&gt;- gameDeck: Stack&amp;lt;AdventureCard&amp;gt;&lt;/div&gt;&lt;div&gt;- gameClientNotifier: GameClientNotifier&lt;/div&gt;&lt;div&gt;- isLittleDeckFree: List&amp;lt;Boolean&amp;gt;&lt;/div&gt;&lt;div&gt;...&lt;/div&gt;" style="text;strokeColor=none;fillColor=none;align=left;verticalAlign=top;spacingLeft=4;spacingRight=4;overflow=hidden;rotatable=0;points=[[0,0.5],[1,0.5]];portConstraint=eastwest;whiteSpace=wrap;html=1;" parent="PPUQBIdJS-AbmWnq9R_o-16" vertex="1">
          <mxGeometry y="26" width="270" height="94" as="geometry" />
        </mxCell>
        <mxCell id="PPUQBIdJS-AbmWnq9R_o-18" value="" style="line;strokeWidth=1;fillColor=none;align=left;verticalAlign=middle;spacingTop=-1;spacingLeft=3;spacingRight=3;rotatable=0;labelPosition=right;points=[];portConstraint=eastwest;strokeColor=inherit;" parent="PPUQBIdJS-AbmWnq9R_o-16" vertex="1">
          <mxGeometry y="120" width="270" height="8" as="geometry" />
        </mxCell>
        <mxCell id="PPUQBIdJS-AbmWnq9R_o-19" value="+ createGameDeck(boolean): void&lt;div&gt;+ drawCard(): AdventureCard&lt;/div&gt;&lt;div&gt;+ setupLittleDecks(GameModel): void&lt;/div&gt;&lt;div&gt;+ loadCards(boolean): void&lt;/div&gt;&lt;div&gt;+ releaseLittleDeck(int): void&lt;/div&gt;&lt;div&gt;...&lt;/div&gt;" style="text;strokeColor=none;fillColor=none;align=left;verticalAlign=top;spacingLeft=4;spacingRight=4;overflow=hidden;rotatable=0;points=[[0,0.5],[1,0.5]];portConstraint=eastwest;whiteSpace=wrap;html=1;" parent="PPUQBIdJS-AbmWnq9R_o-16" vertex="1">
          <mxGeometry y="128" width="270" height="112" as="geometry" />
        </mxCell>
        <mxCell id="PPUQBIdJS-AbmWnq9R_o-77" style="edgeStyle=orthogonalEdgeStyle;rounded=0;orthogonalLoop=1;jettySize=auto;html=1;dashed=1;dashPattern=8 8;endArrow=block;endFill=0;" parent="1" source="PPUQBIdJS-AbmWnq9R_o-20" target="UjiULM0Yq0ChmZ1WHvMP-35" edge="1">
          <mxGeometry relative="1" as="geometry" />
        </mxCell>
        <mxCell id="PPUQBIdJS-AbmWnq9R_o-78" style="edgeStyle=orthogonalEdgeStyle;rounded=0;orthogonalLoop=1;jettySize=auto;html=1;dashed=1;dashPattern=8 8;endArrow=block;endFill=0;" parent="1" source="PPUQBIdJS-AbmWnq9R_o-20" target="PPUQBIdJS-AbmWnq9R_o-21" edge="1">
          <mxGeometry relative="1" as="geometry" />
        </mxCell>
        <mxCell id="PPUQBIdJS-AbmWnq9R_o-85" style="edgeStyle=orthogonalEdgeStyle;rounded=0;orthogonalLoop=1;jettySize=auto;html=1;" parent="1" source="PPUQBIdJS-AbmWnq9R_o-20" edge="1">
          <mxGeometry relative="1" as="geometry">
            <mxPoint x="2380" y="569.9999999999995" as="sourcePoint" />
            <mxPoint x="2330" y="425.00000000000045" as="targetPoint" />
            <Array as="points">
              <mxPoint x="2330" y="570" />
            </Array>
          </mxGeometry>
        </mxCell>
        <mxCell id="PPUQBIdJS-AbmWnq9R_o-20" value="&lt;p style=&quot;margin:0px;margin-top:4px;text-align:center;&quot;&gt;&lt;i&gt;&amp;lt;&amp;lt;Abstract&amp;gt;&amp;gt;&lt;/i&gt;&lt;br&gt;&lt;b&gt;ShipBoard&lt;/b&gt;&lt;/p&gt;&lt;hr size=&quot;1&quot; style=&quot;border-style:solid;&quot;&gt;&lt;p style=&quot;margin:0px;margin-left:4px;&quot;&gt;# gameClientNotifier: GameClientNotifier&lt;/p&gt;&lt;p style=&quot;margin:0px;margin-left:4px;&quot;&gt;+ &amp;lt;&amp;lt;final&amp;gt;&amp;gt; &amp;lt;&amp;lt;static&amp;gt;&amp;gt; BOARD_DIMENSION: int&lt;/p&gt;&lt;p style=&quot;margin:0px;margin-left:4px;&quot;&gt;+ &amp;lt;&amp;lt;final&amp;gt;&amp;gt; &amp;lt;&amp;lt;static&amp;gt;&amp;gt; STARTING_CABIN_POSITION: int&lt;/p&gt;&lt;p style=&quot;margin:0px;margin-left:4px;&quot;&gt;# validPositions: boolean[][]&lt;/p&gt;&lt;p style=&quot;margin:0px;margin-left:4px;&quot;&gt;# shipMatrix: Component[][]&lt;/p&gt;&lt;p style=&quot;margin:0px;margin-left:4px;&quot;&gt;# componentsPerType: Map&amp;lt;Class&amp;lt;?&amp;gt;, List&amp;lt;Component&amp;gt;&amp;gt;&lt;/p&gt;&lt;p style=&quot;margin:0px;margin-left:4px;&quot;&gt;# notActiveComponents: List&amp;lt;Component&amp;gt;&lt;/p&gt;&lt;p style=&quot;margin:0px;margin-left:4px;&quot;&gt;# focusedComponent: Component&lt;/p&gt;&lt;p style=&quot;margin:0px;margin-left:4px;&quot;&gt;# player: Player&lt;/p&gt;&lt;p style=&quot;margin:0px;margin-left:4px;&quot;&gt;- incorrectlyPositionedComponentsCoordinates: Set&amp;lt;Coordinate&amp;gt;&lt;/p&gt;&lt;p style=&quot;margin:0px;margin-left:4px;&quot;&gt;&lt;br&gt;&lt;/p&gt;&lt;hr size=&quot;1&quot; style=&quot;border-style:solid;&quot;&gt;&lt;p style=&quot;margin:0px;margin-left:4px;&quot;&gt;&lt;span style=&quot;background-color: transparent; color: light-dark(rgb(0, 0, 0), rgb(255, 255, 255));&quot;&gt;+ checkShipBoard(): void&lt;/span&gt;&lt;/p&gt;&lt;p style=&quot;margin:0px;margin-left:4px;&quot;&gt;&lt;span style=&quot;background-color: transparent; color: light-dark(rgb(0, 0, 0), rgb(255, 255, 255));&quot;&gt;+ placeComponentWithFocus(int, int): void&lt;/span&gt;&lt;/p&gt;&lt;p style=&quot;margin:0px;margin-left:4px;&quot;&gt;&lt;span style=&quot;background-color: transparent; color: light-dark(rgb(0, 0, 0), rgb(255, 255, 255));&quot;&gt;+ removeAndRecalculateShipParts(int, int): Set&amp;lt;Set&amp;lt;Coordinate&amp;gt;&amp;gt;&lt;/span&gt;&lt;/p&gt;&lt;p style=&quot;margin:0px;margin-left:4px;&quot;&gt;+ isShipCorrect(): boolean&lt;/p&gt;&lt;p style=&quot;margin:0px;margin-left:4px;&quot;&gt;+ removeShipPart(Set&amp;lt;Coordinate&amp;gt;): void&lt;/p&gt;&lt;p style=&quot;margin:0px;margin-left:4px;&quot;&gt;+ countTotalEnginePower(List&amp;lt;Engine&amp;gt;): int&lt;/p&gt;&lt;p style=&quot;margin:0px;margin-left:4px;&quot;&gt;+ countTotalFirePower(List&amp;lt;Cannon&amp;gt;): int&lt;/p&gt;" style="verticalAlign=top;align=left;overflow=fill;html=1;whiteSpace=wrap;" parent="1" vertex="1">
          <mxGeometry x="2400" y="280" width="450" height="331" as="geometry" />
        </mxCell>
        <mxCell id="PPUQBIdJS-AbmWnq9R_o-21" value="Level2ShipBoard" style="swimlane;fontStyle=1;align=center;verticalAlign=top;childLayout=stackLayout;horizontal=1;startSize=26;horizontalStack=0;resizeParent=1;resizeParentMax=0;resizeLast=0;collapsible=1;marginBottom=0;whiteSpace=wrap;html=1;" parent="1" vertex="1">
          <mxGeometry x="2990" y="454.5" width="160" height="34" as="geometry" />
        </mxCell>
        <mxCell id="PPUQBIdJS-AbmWnq9R_o-22" value="Level1&lt;b&gt;FlyingBoard&lt;/b&gt;" style="swimlane;fontStyle=1;align=center;verticalAlign=top;childLayout=stackLayout;horizontal=1;startSize=26;horizontalStack=0;resizeParent=1;resizeParentMax=0;resizeLast=0;collapsible=1;marginBottom=0;whiteSpace=wrap;html=1;" parent="1" vertex="1">
          <mxGeometry x="2920" y="688" width="160" height="34" as="geometry" />
        </mxCell>
        <mxCell id="PPUQBIdJS-AbmWnq9R_o-79" style="edgeStyle=orthogonalEdgeStyle;rounded=0;orthogonalLoop=1;jettySize=auto;html=1;entryX=0;entryY=0.5;entryDx=0;entryDy=0;dashed=1;dashPattern=8 8;endArrow=block;endFill=0;" parent="1" source="PPUQBIdJS-AbmWnq9R_o-23" target="PPUQBIdJS-AbmWnq9R_o-22" edge="1">
          <mxGeometry relative="1" as="geometry" />
        </mxCell>
        <mxCell id="PPUQBIdJS-AbmWnq9R_o-80" style="edgeStyle=orthogonalEdgeStyle;rounded=0;orthogonalLoop=1;jettySize=auto;html=1;entryX=0;entryY=0.5;entryDx=0;entryDy=0;dashed=1;dashPattern=8 8;endArrow=block;endFill=0;" parent="1" source="PPUQBIdJS-AbmWnq9R_o-23" target="PPUQBIdJS-AbmWnq9R_o-24" edge="1">
          <mxGeometry relative="1" as="geometry" />
        </mxCell>
        <mxCell id="PPUQBIdJS-AbmWnq9R_o-84" style="edgeStyle=orthogonalEdgeStyle;rounded=0;orthogonalLoop=1;jettySize=auto;html=1;" parent="1" source="PPUQBIdJS-AbmWnq9R_o-23" target="UjiULM0Yq0ChmZ1WHvMP-31" edge="1">
          <mxGeometry relative="1" as="geometry">
            <Array as="points">
              <mxPoint x="2310" y="680" />
            </Array>
          </mxGeometry>
        </mxCell>
        <mxCell id="PPUQBIdJS-AbmWnq9R_o-23" value="&lt;p style=&quot;margin:0px;margin-top:4px;text-align:center;&quot;&gt;&lt;i&gt;&amp;lt;&amp;lt;Abstract&amp;gt;&amp;gt;&lt;/i&gt;&lt;br&gt;&lt;b&gt;FlyingBoard&lt;/b&gt;&lt;/p&gt;&lt;hr size=&quot;1&quot; style=&quot;border-style:solid;&quot;&gt;&lt;p style=&quot;margin:0px;margin-left:4px;&quot;&gt;- outPlayers: Set&amp;lt;Player&amp;gt;&lt;/p&gt;&lt;p style=&quot;margin:0px;margin-left:4px;&quot;&gt;# runLength: int&lt;/p&gt;&lt;p style=&quot;margin:0px;margin-left:4px;&quot;&gt;# ranking: Map&amp;lt;Player, Integer&amp;gt;&lt;/p&gt;&lt;p style=&quot;margin:0px;margin-left:4px;&quot;&gt;# gameClientNotifier: GameClientNotifier&lt;/p&gt;&lt;hr size=&quot;1&quot; style=&quot;border-style:solid;&quot;&gt;&lt;p style=&quot;margin:0px;margin-left:4px;&quot;&gt;+ insertPlayer(Player): int&lt;/p&gt;&lt;p style=&quot;margin:0px;margin-left:4px;&quot;&gt;+ addOutPlayer(Player, boolean): void&lt;/p&gt;&lt;p style=&quot;margin:0px;margin-left:4px;&quot;&gt;+ movePlayer(Player, int): void&lt;/p&gt;" style="verticalAlign=top;align=left;overflow=fill;html=1;whiteSpace=wrap;" parent="1" vertex="1">
          <mxGeometry x="2481" y="646" width="320" height="170" as="geometry" />
        </mxCell>
        <mxCell id="PPUQBIdJS-AbmWnq9R_o-24" value="Level2&lt;b&gt;FlyingBoard&lt;/b&gt;" style="swimlane;fontStyle=1;align=center;verticalAlign=top;childLayout=stackLayout;horizontal=1;startSize=26;horizontalStack=0;resizeParent=1;resizeParentMax=0;resizeLast=0;collapsible=1;marginBottom=0;whiteSpace=wrap;html=1;" parent="1" vertex="1">
          <mxGeometry x="2920" y="740" width="160" height="34" as="geometry" />
        </mxCell>
        <mxCell id="PPUQBIdJS-AbmWnq9R_o-81" style="edgeStyle=orthogonalEdgeStyle;rounded=0;orthogonalLoop=1;jettySize=auto;html=1;" parent="1" source="PPUQBIdJS-AbmWnq9R_o-25" target="PPUQBIdJS-AbmWnq9R_o-36" edge="1">
          <mxGeometry relative="1" as="geometry" />
        </mxCell>
        <mxCell id="PPUQBIdJS-AbmWnq9R_o-25" value="&lt;p style=&quot;margin:0px;margin-top:4px;text-align:center;&quot;&gt;&lt;i&gt;&amp;lt;&amp;lt;Abstract&amp;gt;&amp;gt;&lt;/i&gt;&lt;br&gt;&lt;b&gt;Component&lt;/b&gt;&lt;/p&gt;&lt;hr size=&quot;1&quot; style=&quot;border-style:solid;&quot;&gt;&lt;p style=&quot;margin:0px;margin-left:4px;&quot;&gt;- currState: ComponentState&lt;/p&gt;&lt;p style=&quot;margin:0px;margin-left:4px;&quot;&gt;- rotation: int&lt;/p&gt;&lt;p style=&quot;margin:0px;margin-left:4px;&quot;&gt;- connectors: Map&amp;lt;Direction, ConnectorType&amp;gt;&lt;/p&gt;&lt;hr size=&quot;1&quot; style=&quot;border-style:solid;&quot;&gt;&lt;p style=&quot;margin:0px;margin-left:4px;&quot;&gt;+ rotate(): void&lt;/p&gt;&lt;p style=&quot;margin:0px;margin-left:4px;&quot;&gt;+ insertInComponentMap(Map&amp;lt;Class&amp;lt;?&amp;gt;, List&amp;lt;Component&amp;gt;&amp;gt;): void&lt;/p&gt;" style="verticalAlign=top;align=left;overflow=fill;html=1;whiteSpace=wrap;" parent="1" vertex="1">
          <mxGeometry x="2460" y="850" width="385" height="140" as="geometry" />
        </mxCell>
        <mxCell id="PPUQBIdJS-AbmWnq9R_o-86" style="edgeStyle=orthogonalEdgeStyle;rounded=0;orthogonalLoop=1;jettySize=auto;html=1;" parent="1" source="PPUQBIdJS-AbmWnq9R_o-27" target="UjiULM0Yq0ChmZ1WHvMP-31" edge="1">
          <mxGeometry relative="1" as="geometry">
            <Array as="points">
              <mxPoint x="1830" y="1020" />
            </Array>
          </mxGeometry>
        </mxCell>
        <mxCell id="PPUQBIdJS-AbmWnq9R_o-27" value="ComponentTable" style="swimlane;fontStyle=1;align=center;verticalAlign=top;childLayout=stackLayout;horizontal=1;startSize=26;horizontalStack=0;resizeParent=1;resizeParentMax=0;resizeLast=0;collapsible=1;marginBottom=0;whiteSpace=wrap;html=1;" parent="1" vertex="1">
          <mxGeometry x="2460" y="1005" width="330" height="140" as="geometry" />
        </mxCell>
        <mxCell id="PPUQBIdJS-AbmWnq9R_o-28" value="- &amp;lt;&amp;lt;final&amp;gt;&amp;gt; hiddenComponents: Stack&amp;lt;Component&amp;gt;&lt;div&gt;- &amp;lt;&amp;lt;final&amp;gt;&amp;gt; visibleComponents: Map&amp;lt;Integer, Component&amp;gt;&lt;/div&gt;&lt;div&gt;- currVisibleIndex: Integer&lt;/div&gt;&lt;div&gt;- gameClientNotifier: GameClientNotifier&lt;/div&gt;" style="text;strokeColor=none;fillColor=none;align=left;verticalAlign=top;spacingLeft=4;spacingRight=4;overflow=hidden;rotatable=0;points=[[0,0.5],[1,0.5]];portConstraint=eastwest;whiteSpace=wrap;html=1;" parent="PPUQBIdJS-AbmWnq9R_o-27" vertex="1">
          <mxGeometry y="26" width="330" height="64" as="geometry" />
        </mxCell>
        <mxCell id="PPUQBIdJS-AbmWnq9R_o-29" value="" style="line;strokeWidth=1;fillColor=none;align=left;verticalAlign=middle;spacingTop=-1;spacingLeft=3;spacingRight=3;rotatable=0;labelPosition=right;points=[];portConstraint=eastwest;strokeColor=inherit;" parent="PPUQBIdJS-AbmWnq9R_o-27" vertex="1">
          <mxGeometry y="90" width="330" height="8" as="geometry" />
        </mxCell>
        <mxCell id="PPUQBIdJS-AbmWnq9R_o-30" value="+ pickHiddenComponent(): Component&lt;div&gt;+ pickVisibleComponent(): Component&lt;/div&gt;" style="text;strokeColor=none;fillColor=none;align=left;verticalAlign=top;spacingLeft=4;spacingRight=4;overflow=hidden;rotatable=0;points=[[0,0.5],[1,0.5]];portConstraint=eastwest;whiteSpace=wrap;html=1;" parent="PPUQBIdJS-AbmWnq9R_o-27" vertex="1">
          <mxGeometry y="98" width="330" height="42" as="geometry" />
        </mxCell>
        <mxCell id="PPUQBIdJS-AbmWnq9R_o-36" value="&lt;p style=&quot;margin:0px;margin-top:4px;text-align:center;&quot;&gt;&lt;i&gt;&amp;lt;&amp;lt;Enumeration&amp;gt;&amp;gt;&lt;/i&gt;&lt;br&gt;&lt;b&gt;ComponentState&lt;/b&gt;&lt;/p&gt;&lt;hr size=&quot;1&quot; style=&quot;border-style:solid;&quot;&gt;&lt;p style=&quot;margin:0px;margin-left:4px;&quot;&gt;VISIBLE,&lt;/p&gt;&lt;p style=&quot;margin:0px;margin-left:4px;&quot;&gt;BOOKED,&amp;nbsp;&lt;/p&gt;&lt;p style=&quot;margin:0px;margin-left:4px;&quot;&gt;USED,&lt;/p&gt;&lt;p style=&quot;margin:0px;margin-left:4px;&quot;&gt;HIDDEN&lt;/p&gt;" style="verticalAlign=top;align=left;overflow=fill;html=1;whiteSpace=wrap;" parent="1" vertex="1">
          <mxGeometry x="2920" y="865" width="160" height="110" as="geometry" />
        </mxCell>
        <mxCell id="PPUQBIdJS-AbmWnq9R_o-89" style="edgeStyle=orthogonalEdgeStyle;rounded=0;orthogonalLoop=1;jettySize=auto;html=1;" parent="1" source="PPUQBIdJS-AbmWnq9R_o-37" target="UjiULM0Yq0ChmZ1WHvMP-31" edge="1">
          <mxGeometry relative="1" as="geometry">
            <Array as="points">
              <mxPoint x="2260" y="1040" />
              <mxPoint x="1810" y="1040" />
            </Array>
          </mxGeometry>
        </mxCell>
        <mxCell id="PPUQBIdJS-AbmWnq9R_o-37" value="&lt;p style=&quot;margin:0px;margin-top:4px;text-align:center;&quot;&gt;&lt;i&gt;&amp;lt;&amp;lt;Abstract&amp;gt;&amp;gt;&lt;/i&gt;&lt;br&gt;&lt;b&gt;AdventureCard&lt;/b&gt;&lt;/p&gt;&lt;hr size=&quot;1&quot; style=&quot;border-style:solid;&quot;&gt;&lt;p style=&quot;margin: 0px 0px 0px 4px;&quot;&gt;# cardName: String&lt;/p&gt;&lt;p style=&quot;margin: 0px 0px 0px 4px;&quot;&gt;# level: int&lt;/p&gt;&lt;p style=&quot;margin: 0px 0px 0px 4px;&quot;&gt;# currState: CardState&lt;/p&gt;&lt;p style=&quot;margin: 0px 0px 0px 4px;&quot;&gt;# gameModel: GameModel&lt;/p&gt;&lt;p style=&quot;margin: 0px 0px 0px 4px;&quot;&gt;# isTestFlightCard: boolean&lt;/p&gt;&lt;p style=&quot;margin: 0px 0px 0px 4px;&quot;&gt;...&lt;/p&gt;&lt;hr size=&quot;1&quot; style=&quot;border-style:solid;&quot;&gt;&lt;p style=&quot;margin:0px;margin-left:4px;&quot;&gt;...&lt;/p&gt;" style="verticalAlign=top;align=left;overflow=fill;html=1;whiteSpace=wrap;" parent="1" vertex="1">
          <mxGeometry x="2040" y="1280" width="385" height="170" as="geometry" />
        </mxCell>
        <mxCell id="PPUQBIdJS-AbmWnq9R_o-38" value="ClientLauncher" style="swimlane;fontStyle=1;align=center;verticalAlign=top;childLayout=stackLayout;horizontal=1;startSize=26;horizontalStack=0;resizeParent=1;resizeParentMax=0;resizeLast=0;collapsible=1;marginBottom=0;whiteSpace=wrap;html=1;" parent="1" vertex="1">
          <mxGeometry x="-413" y="1130" width="200" height="200" as="geometry" />
        </mxCell>
        <mxCell id="PPUQBIdJS-AbmWnq9R_o-39" value="- &amp;lt;&amp;lt;static&amp;gt;&amp;gt; isRMI: boolean&lt;div&gt;- &amp;lt;&amp;lt;static&amp;gt;&amp;gt; isGUI: boolean&lt;/div&gt;&lt;div&gt;- &amp;lt;&amp;lt;static&amp;gt;&amp;gt; serverAddress: String&lt;/div&gt;&lt;div&gt;- &amp;lt;&amp;lt;static&amp;gt;&amp;gt; serverPort: Integer&lt;/div&gt;&lt;div&gt;...&lt;/div&gt;" style="text;strokeColor=none;fillColor=none;align=left;verticalAlign=top;spacingLeft=4;spacingRight=4;overflow=hidden;rotatable=0;points=[[0,0.5],[1,0.5]];portConstraint=eastwest;whiteSpace=wrap;html=1;" parent="PPUQBIdJS-AbmWnq9R_o-38" vertex="1">
          <mxGeometry y="26" width="200" height="84" as="geometry" />
        </mxCell>
        <mxCell id="PPUQBIdJS-AbmWnq9R_o-40" value="" style="line;strokeWidth=1;fillColor=none;align=left;verticalAlign=middle;spacingTop=-1;spacingLeft=3;spacingRight=3;rotatable=0;labelPosition=right;points=[];portConstraint=eastwest;strokeColor=inherit;" parent="PPUQBIdJS-AbmWnq9R_o-38" vertex="1">
          <mxGeometry y="110" width="200" height="8" as="geometry" />
        </mxCell>
        <mxCell id="PPUQBIdJS-AbmWnq9R_o-41" value="&lt;span style=&quot;font-size: 14px; text-wrap-mode: nowrap;&quot;&gt;+ main(String[]): void&lt;/span&gt;&lt;br style=&quot;font-size: 14px; text-wrap-mode: nowrap;&quot;&gt;&lt;span style=&quot;font-size: 14px; text-wrap-mode: nowrap;&quot;&gt;- launchCli(): void&lt;/span&gt;&lt;br style=&quot;font-size: 14px; text-wrap-mode: nowrap;&quot;&gt;&lt;span style=&quot;font-size: 14px; text-wrap-mode: nowrap;&quot;&gt;- launchGui(): void&lt;/span&gt;&lt;div&gt;&lt;span style=&quot;font-size: 14px; text-wrap-mode: nowrap;&quot;&gt;...&lt;/span&gt;&lt;/div&gt;" style="text;strokeColor=none;fillColor=none;align=left;verticalAlign=top;spacingLeft=4;spacingRight=4;overflow=hidden;rotatable=0;points=[[0,0.5],[1,0.5]];portConstraint=eastwest;whiteSpace=wrap;html=1;" parent="PPUQBIdJS-AbmWnq9R_o-38" vertex="1">
          <mxGeometry y="118" width="200" height="82" as="geometry" />
        </mxCell>
        <mxCell id="PPUQBIdJS-AbmWnq9R_o-43" style="edgeStyle=orthogonalEdgeStyle;rounded=0;orthogonalLoop=1;jettySize=auto;html=1;entryX=0;entryY=0.5;entryDx=0;entryDy=0;" parent="1" source="UjiULM0Yq0ChmZ1WHvMP-14" target="UjiULM0Yq0ChmZ1WHvMP-119" edge="1">
          <mxGeometry relative="1" as="geometry">
            <Array as="points">
              <mxPoint x="560" y="773" />
              <mxPoint x="560" y="510" />
            </Array>
          </mxGeometry>
        </mxCell>
        <mxCell id="PPUQBIdJS-AbmWnq9R_o-44" style="edgeStyle=orthogonalEdgeStyle;rounded=0;orthogonalLoop=1;jettySize=auto;html=1;entryX=1.004;entryY=0.232;entryDx=0;entryDy=0;entryPerimeter=0;dashed=1;dashPattern=8 8;endArrow=block;endFill=0;" parent="1" source="UjiULM0Yq0ChmZ1WHvMP-119" target="UjiULM0Yq0ChmZ1WHvMP-20" edge="1">
          <mxGeometry relative="1" as="geometry">
            <Array as="points">
              <mxPoint x="890" y="550" />
              <mxPoint x="890" y="1224" />
            </Array>
          </mxGeometry>
        </mxCell>
        <mxCell id="PPUQBIdJS-AbmWnq9R_o-45" style="edgeStyle=orthogonalEdgeStyle;rounded=0;orthogonalLoop=1;jettySize=auto;html=1;entryX=0.5;entryY=0;entryDx=0;entryDy=0;exitX=0.208;exitY=0.996;exitDx=0;exitDy=0;exitPerimeter=0;" parent="1" source="UjiULM0Yq0ChmZ1WHvMP-20" target="UjiULM0Yq0ChmZ1WHvMP-56" edge="1">
          <mxGeometry relative="1" as="geometry">
            <Array as="points">
              <mxPoint x="-50" y="1310" />
            </Array>
          </mxGeometry>
        </mxCell>
        <mxCell id="PPUQBIdJS-AbmWnq9R_o-47" style="edgeStyle=orthogonalEdgeStyle;rounded=0;orthogonalLoop=1;jettySize=auto;html=1;entryX=0.619;entryY=-0.029;entryDx=0;entryDy=0;entryPerimeter=0;exitX=0.774;exitY=1.018;exitDx=0;exitDy=0;exitPerimeter=0;" parent="1" source="UjiULM0Yq0ChmZ1WHvMP-20" target="UjiULM0Yq0ChmZ1WHvMP-62" edge="1">
          <mxGeometry relative="1" as="geometry">
            <Array as="points">
              <mxPoint x="215" y="1312" />
              <mxPoint x="215" y="1365" />
            </Array>
          </mxGeometry>
        </mxCell>
        <mxCell id="PPUQBIdJS-AbmWnq9R_o-50" style="edgeStyle=orthogonalEdgeStyle;rounded=0;orthogonalLoop=1;jettySize=auto;html=1;entryX=0.529;entryY=0.037;entryDx=0;entryDy=0;entryPerimeter=0;dashed=1;dashPattern=8 8;endArrow=block;endFill=0;" parent="1" source="UjiULM0Yq0ChmZ1WHvMP-119" target="UjiULM0Yq0ChmZ1WHvMP-5" edge="1">
          <mxGeometry relative="1" as="geometry">
            <Array as="points">
              <mxPoint x="1100" y="550" />
              <mxPoint x="1100" y="650" />
              <mxPoint x="1350" y="650" />
            </Array>
          </mxGeometry>
        </mxCell>
        <mxCell id="PPUQBIdJS-AbmWnq9R_o-54" style="edgeStyle=orthogonalEdgeStyle;rounded=0;orthogonalLoop=1;jettySize=auto;html=1;entryX=-0.006;entryY=0.786;entryDx=0;entryDy=0;entryPerimeter=0;" parent="1" source="PPUQBIdJS-AbmWnq9R_o-38" target="UjiULM0Yq0ChmZ1WHvMP-14" edge="1">
          <mxGeometry relative="1" as="geometry" />
        </mxCell>
        <mxCell id="PPUQBIdJS-AbmWnq9R_o-55" style="edgeStyle=orthogonalEdgeStyle;rounded=0;orthogonalLoop=1;jettySize=auto;html=1;entryX=0.635;entryY=1.008;entryDx=0;entryDy=0;entryPerimeter=0;" parent="1" source="UjiULM0Yq0ChmZ1WHvMP-13" target="UjiULM0Yq0ChmZ1WHvMP-85" edge="1">
          <mxGeometry relative="1" as="geometry">
            <Array as="points">
              <mxPoint x="-500" y="720" />
              <mxPoint x="-500" y="630" />
            </Array>
          </mxGeometry>
        </mxCell>
        <mxCell id="PPUQBIdJS-AbmWnq9R_o-56" style="edgeStyle=orthogonalEdgeStyle;rounded=0;orthogonalLoop=1;jettySize=auto;html=1;" parent="1" source="UjiULM0Yq0ChmZ1WHvMP-14" target="UjiULM0Yq0ChmZ1WHvMP-87" edge="1">
          <mxGeometry relative="1" as="geometry">
            <Array as="points">
              <mxPoint x="-600" y="790" />
            </Array>
          </mxGeometry>
        </mxCell>
        <mxCell id="PPUQBIdJS-AbmWnq9R_o-57" style="edgeStyle=orthogonalEdgeStyle;rounded=0;orthogonalLoop=1;jettySize=auto;html=1;" parent="1" source="UjiULM0Yq0ChmZ1WHvMP-88" target="PPUQBIdJS-AbmWnq9R_o-2" edge="1">
          <mxGeometry relative="1" as="geometry" />
        </mxCell>
        <mxCell id="PPUQBIdJS-AbmWnq9R_o-61" style="edgeStyle=orthogonalEdgeStyle;rounded=0;orthogonalLoop=1;jettySize=auto;html=1;" parent="1" source="UjiULM0Yq0ChmZ1WHvMP-14" target="UjiULM0Yq0ChmZ1WHvMP-104" edge="1">
          <mxGeometry relative="1" as="geometry">
            <Array as="points">
              <mxPoint x="-190" y="755" />
              <mxPoint x="-190" y="755" />
            </Array>
          </mxGeometry>
        </mxCell>
        <mxCell id="PPUQBIdJS-AbmWnq9R_o-66" style="edgeStyle=orthogonalEdgeStyle;rounded=0;orthogonalLoop=1;jettySize=auto;html=1;" parent="1" source="UjiULM0Yq0ChmZ1WHvMP-6" target="UjiULM0Yq0ChmZ1WHvMP-100" edge="1">
          <mxGeometry relative="1" as="geometry">
            <Array as="points">
              <mxPoint x="1680" y="728" />
              <mxPoint x="1680" y="767" />
            </Array>
          </mxGeometry>
        </mxCell>
        <mxCell id="PPUQBIdJS-AbmWnq9R_o-70" style="edgeStyle=orthogonalEdgeStyle;rounded=0;orthogonalLoop=1;jettySize=auto;html=1;dashed=1;dashPattern=8 8;endArrow=block;endFill=0;" parent="1" source="UjiULM0Yq0ChmZ1WHvMP-80" target="UjiULM0Yq0ChmZ1WHvMP-17" edge="1">
          <mxGeometry relative="1" as="geometry">
            <Array as="points">
              <mxPoint x="480" y="100" />
              <mxPoint x="480" y="1190" />
            </Array>
          </mxGeometry>
        </mxCell>
        <mxCell id="PPUQBIdJS-AbmWnq9R_o-71" style="edgeStyle=orthogonalEdgeStyle;rounded=0;orthogonalLoop=1;jettySize=auto;html=1;dashed=1;dashPattern=8 8;endArrow=block;endFill=0;" parent="1" source="UjiULM0Yq0ChmZ1WHvMP-80" target="UjiULM0Yq0ChmZ1WHvMP-1" edge="1">
          <mxGeometry relative="1" as="geometry">
            <Array as="points">
              <mxPoint x="1010" y="100" />
              <mxPoint x="1010" y="-55" />
            </Array>
          </mxGeometry>
        </mxCell>
        <mxCell id="PPUQBIdJS-AbmWnq9R_o-75" style="edgeStyle=orthogonalEdgeStyle;rounded=0;orthogonalLoop=1;jettySize=auto;html=1;" parent="1" source="UjiULM0Yq0ChmZ1WHvMP-101" target="PPUQBIdJS-AbmWnq9R_o-23" edge="1">
          <mxGeometry relative="1" as="geometry">
            <Array as="points">
              <mxPoint x="2440" y="695" />
              <mxPoint x="2440" y="695" />
            </Array>
          </mxGeometry>
        </mxCell>
        <mxCell id="PPUQBIdJS-AbmWnq9R_o-76" style="edgeStyle=orthogonalEdgeStyle;rounded=0;orthogonalLoop=1;jettySize=auto;html=1;" parent="1" source="UjiULM0Yq0ChmZ1WHvMP-101" target="PPUQBIdJS-AbmWnq9R_o-25" edge="1">
          <mxGeometry relative="1" as="geometry">
            <Array as="points">
              <mxPoint x="2390" y="750" />
              <mxPoint x="2390" y="920" />
            </Array>
          </mxGeometry>
        </mxCell>
        <mxCell id="PPUQBIdJS-AbmWnq9R_o-91" style="edgeStyle=orthogonalEdgeStyle;rounded=0;orthogonalLoop=1;jettySize=auto;html=1;" parent="1" source="UjiULM0Yq0ChmZ1WHvMP-103" target="UjiULM0Yq0ChmZ1WHvMP-117" edge="1">
          <mxGeometry relative="1" as="geometry">
            <Array as="points">
              <mxPoint x="2370" y="886" />
              <mxPoint x="2370" y="1210" />
            </Array>
          </mxGeometry>
        </mxCell>
      </root>
    </mxGraphModel>
  </diagram>
</mxfile>
